<svg width="2402" height="564" viewBox="0 0 2402 564" fill="none" xmlns="http://www.w3.org/2000/svg">
<rect width="2402" height="564" fill="#2B2B2B"/>
<path d="M1 563.413C800.95 563.413 1600.9 563.413 2400.85 563.413" stroke="white" stroke-miterlimit="10"/>
<path d="M1 549.358C800.937 549.174 1600.89 550.265 2400.85 549.358" stroke="white" stroke-miterlimit="10"/>
<path d="M1 535.488C800.881 535.205 1600.87 537.004 2400.85 535.488" stroke="white" stroke-miterlimit="10"/>
<path d="M1 521.83C220.549 521.731 439.723 517.127 659.084 516.659C839.204 516.277 1019.21 522.935 1199.35 521.944C1599.86 519.762 2000.24 522.751 2400.77 521.83" stroke="white" stroke-miterlimit="10"/>
<path d="M1 508.357C116.455 508.357 232.454 511.19 347.853 508.81C452.434 506.699 555.965 499.913 660.715 499.885C840.066 499.885 1019.14 509.278 1198.53 508.385C1599.36 506.331 1999.98 509.377 2400.85 508.385" stroke="white" stroke-miterlimit="10"/>
<path d="M1 495.082C116.605 495.082 233.335 499.035 348.828 495.309C454.028 491.923 556.94 482.345 662.552 482.657C841.004 483.167 1018.95 495.606 1197.44 494.898C1381.18 494.175 1564.35 486.695 1748.05 490.648C1965.39 495.295 2183.4 495.635 2400.85 495.11" stroke="white" stroke-miterlimit="10"/>
<path d="M1 481.991C116.718 481.991 234.46 487.219 349.972 481.878C455.997 476.99 557.99 464.281 664.708 464.99C842.129 466.237 1018.76 481.892 1196.28 481.538C1380.88 481.169 1564.6 470.742 1749.37 475.871C1966.2 481.821 2183.98 482.473 2400.98 482.019" stroke="white" stroke-miterlimit="10"/>
<path d="M1 469.127C116.793 469.127 235.829 475.743 351.266 468.574C406.106 465.174 460.009 455.823 514.38 450.652C565.002 445.807 616.037 446.487 666.883 447.096C843.122 449.207 1018.33 468.348 1194.79 468.348C1380.41 468.461 1564.63 454.718 1750.51 461.037C1966.74 468.362 2184.3 469.424 2400.77 469.07" stroke="white" stroke-miterlimit="10"/>
<path d="M1 456.489C116.793 456.489 237.46 464.565 352.69 455.427C408.037 451.035 461.94 439.956 516.855 433.523C567.477 427.601 618.436 428.069 669.471 428.976C844.697 432.022 1018.11 454.718 1193.43 455.384C1380.35 456.093 1564.86 438.751 1752.14 446.359C1967.75 455.115 2185.01 456.645 2400.85 456.447" stroke="white" stroke-miterlimit="10"/>
<path d="M1 443.951C116.718 443.951 239.335 453.542 354.209 442.322C410.081 436.853 464.096 423.974 519.405 416.239C570.027 409.155 620.855 409.396 672.114 410.572C846.085 414.666 1017.64 441.174 1191.85 442.477C1380.13 443.894 1564.95 422.643 1753.66 431.639C1968.52 441.84 2185.52 443.951 2400.85 443.908" stroke="white" stroke-miterlimit="10"/>
<path d="M1 431.668C116.568 431.668 241.416 442.761 355.822 429.401C412.274 422.799 466.346 408.079 522.067 398.983C572.689 390.709 623.311 390.652 674.889 392.225C847.603 397.481 1017.17 427.828 1190.22 429.84C1282.35 430.903 1373.43 423.238 1465.06 417.217C1562.31 410.827 1658.02 411.805 1755.31 417.103C1969.42 428.735 2186.14 431.512 2400.85 431.668" stroke="white" stroke-miterlimit="10"/>
<path d="M1 419.568C62.5336 419.568 124.049 419.965 185.582 420.263C242.222 420.546 301.431 424.286 357.471 416.636C414.543 408.858 468.671 392.267 524.823 381.769C575.445 372.277 625.767 371.852 677.758 373.835C849.216 380.296 1016.62 414.581 1188.55 417.33C1281.15 418.747 1372.61 409.694 1464.55 402.822C1562.78 395.483 1658.73 396.617 1757.03 402.638C1970.34 415.701 2186.76 419.214 2400.83 419.568" stroke="white" stroke-miterlimit="10"/>
<path d="M1 407.668C62.8711 407.668 124.742 408.121 186.613 408.461C243.479 408.773 303.137 412.825 359.234 404.055C416.905 395.044 471.089 376.584 527.673 364.655C578.483 353.944 628.261 353.15 680.72 355.531C850.941 363.224 1016.08 401.491 1186.94 404.99C1280.03 406.903 1371.9 396.319 1464.14 388.584C1563.51 380.253 1659.52 381.571 1758.91 388.329C1971.39 402.78 2187.51 407.101 2400.94 407.668" stroke="white" stroke-miterlimit="10"/>
<path d="M1 395.965C63.1711 396.05 125.342 396.489 187.532 396.858C244.641 397.212 304.75 401.547 360.884 391.672C419.211 381.401 473.377 361.084 530.429 347.753C581.351 335.824 630.604 334.619 683.589 337.425C852.609 346.378 1015.44 388.626 1185.14 392.905C1278.68 395.271 1371.01 383.172 1463.54 374.572C1563.88 365.25 1660.1 366.751 1760.58 374.26C1972.25 390.043 2188.05 395.214 2400.85 396.008" stroke="white" stroke-miterlimit="10"/>
<path d="M1 384.461C63.4898 384.56 125.998 385.042 188.488 385.453C245.878 385.835 306.4 390.454 362.571 379.488C421.555 367.97 475.758 345.812 533.185 331.007C584.22 317.859 632.911 316.244 686.457 319.488C854.315 329.661 1014.56 375.89 1183.39 380.933C1277.4 383.767 1370.23 370.138 1462.98 360.688C1564.43 350.36 1660.68 352.074 1762.3 360.305C1973.13 377.377 2188.65 383.455 2400.81 384.461" stroke="white" stroke-miterlimit="10"/>
<path d="M1 373.155C63.8086 373.268 126.617 373.793 189.444 374.246C247.135 374.657 308.031 379.545 364.221 367.516C423.861 354.765 478.064 330.808 535.979 314.586C587.088 300.277 635.217 298.208 689.345 301.835C856.115 313.169 1013.91 363.365 1181.76 369.131C1276.26 372.447 1369.66 357.316 1462.58 347.087C1565.12 335.752 1661.32 337.679 1764.12 346.633C1974.11 364.938 2189.38 371.937 2400.91 373.155" stroke="white" stroke-miterlimit="10"/>
<path d="M1 362.048C64.1086 362.161 127.236 362.728 190.363 363.224C248.335 363.677 309.606 368.82 365.833 355.786C426.092 341.802 480.201 316.116 538.623 298.534C589.826 283.077 637.41 280.584 692.101 284.721C857.859 297.231 1013.12 351.309 1180.15 357.698C1275 361.368 1368.9 344.82 1462.04 333.755C1565.66 321.443 1661.83 323.583 1765.77 333.245C1974.95 352.697 2189.98 360.631 2400.91 362.048" stroke="white" stroke-miterlimit="10"/>
<path d="M1 351.124C64.4085 351.266 127.817 351.875 191.226 352.399C249.497 352.881 311.106 358.279 367.333 344.296C428.248 329.15 482.414 301.793 541.154 282.893C592.413 266.373 639.491 263.455 694.744 268.003C859.565 281.575 1012.29 339.337 1178.6 346.421C1273.86 350.473 1368.28 332.551 1461.59 320.721C1566.23 307.46 1662.31 309.826 1767.29 320.154C1975.68 340.669 2190.51 349.552 2400.85 351.124" stroke="white" stroke-miterlimit="10"/>
<path d="M1 340.414C64.746 340.555 128.361 341.193 192.051 341.831C250.566 342.341 312.512 347.979 368.74 333.146C430.348 316.825 484.457 287.894 543.591 267.72C594.869 250.222 641.516 246.907 697.331 251.838C861.327 266.374 1011.58 327.748 1177.3 335.427C1272.92 339.819 1367.86 320.607 1461.33 308.069C1566.92 293.901 1662.91 296.494 1768.81 307.46C1881.13 319.091 1991.08 324.05 2104.06 328.57C2203.11 332.551 2301.63 339.649 2400.91 340.47" stroke="white" stroke-miterlimit="10"/>
<path d="M1 329.887C64.9335 330.043 128.867 330.723 192.801 331.304C251.541 331.842 313.824 337.722 370.033 322.109C432.129 304.853 486.276 274.421 545.71 253.084C596.969 234.667 643.297 231.011 699.45 236.31C862.734 251.668 1010.55 316.47 1175.67 324.532C1271.68 329.221 1367.06 308.848 1460.65 295.644C1567.13 280.64 1663.03 283.432 1770.01 295.006C1882.86 307.205 1993.12 312.461 2106.66 317.306C2204.81 321.557 2302.36 329.023 2400.77 329.873" stroke="white" stroke-miterlimit="10"/>
<path d="M1 319.559C65.1585 319.729 129.317 320.437 193.494 321.061C252.366 321.628 315.024 327.734 371.158 311.469C433.817 293.306 487.832 261.486 547.66 239.073C598.881 219.89 644.985 215.923 701.587 221.505C864.29 237.543 1009.8 305.59 1174.6 313.991C1270.99 318.893 1366.72 297.5 1460.48 283.701C1567.71 267.904 1663.55 270.95 1771.26 283.021C1884.58 295.772 1995.13 301.24 2109.19 306.397C2206.54 310.789 2303.22 318.681 2400.85 319.559" stroke="white" stroke-miterlimit="10"/>
<path d="M1 309.429C65.3647 309.599 129.711 310.336 194.113 310.988C253.078 311.569 316.112 317.916 372.227 301.07C435.392 282.128 489.313 249.019 549.459 225.67C600.606 205.836 646.597 201.585 703.519 207.437C865.771 223.984 1009.12 295.049 1173.65 303.635C1270.3 308.735 1366.35 286.478 1460.26 272.14C1568.1 255.663 1663.93 258.879 1772.31 271.46C1886.06 284.664 1996.85 290.303 2111.39 295.729C2208.04 300.32 2303.94 308.551 2400.91 309.429" stroke="white" stroke-miterlimit="10"/>
<path d="M1 299.498C65.5147 299.668 130.048 300.433 194.563 301.099C253.49 301.708 316.993 308.267 372.864 291.082C436.498 271.517 490.326 237.245 550.734 213.075C601.787 192.674 647.778 188.367 704.925 194.317C866.858 211.177 1008.22 284.99 1172.65 293.632C1269.79 298.733 1365.9 275.852 1460 261.047C1568.31 243.975 1664.15 247.375 1773.1 260.367C1887.24 273.982 1998.24 279.734 2113.19 285.387C2209.26 290.119 2304.42 298.676 2400.91 299.554" stroke="white" stroke-miterlimit="10"/>
<path d="M1 289.764C65.646 289.92 130.367 290.714 194.938 291.408C253.734 292.017 317.724 298.803 373.389 281.391C437.454 261.344 491.151 226.024 551.803 201.231C602.706 180.418 648.866 176.097 706.106 182.104C867.908 199.106 1007.53 275.356 1171.96 283.856C1269.45 288.9 1365.56 265.608 1459.88 250.378C1568.48 232.825 1664.4 236.395 1773.61 249.712C1836.81 257.42 1900.05 266.473 1963.93 270.61C2013.95 273.854 2064.4 272.735 2114.54 275.285C2210.16 280.13 2304.86 288.957 2400.85 289.764" stroke="white" stroke-miterlimit="10"/>
<path d="M1 280.215C65.7397 280.371 130.461 281.193 195.2 281.887C253.734 282.511 318.268 289.524 373.67 272.041C438.11 251.724 491.657 215.512 552.497 190.237C603.231 169.155 649.691 164.962 706.931 170.912C868.733 187.743 1006.91 266.19 1171.49 274.336C1269.38 279.195 1365.26 255.762 1459.83 240.192C1568.57 222.298 1664.6 226.024 1773.91 239.583C1837.35 247.446 1900.84 256.726 1964.98 260.834C2014.98 264.079 2065.4 262.832 2115.49 265.424C2210.83 270.369 2305.14 279.436 2400.85 280.145" stroke="white" stroke-miterlimit="10"/>
<path d="M1 270.893C65.7772 271.035 130.536 271.857 195.313 272.565C253.434 273.203 318.605 280.414 373.708 263.044C438.485 242.558 491.882 205.722 552.834 180.22C603.456 158.969 650.328 155.087 707.4 160.896C869.352 177.344 1006.5 257.477 1171.3 265.184C1269.55 269.774 1365.09 246.44 1459.92 230.657C1568.5 212.565 1664.79 216.39 1774 230.09C1837.58 238.067 1901.19 247.517 1965.5 251.625C2015.51 254.827 2065.92 253.467 2116.02 256.088C2211.21 261.061 2305.38 270.256 2401 270.922" stroke="white" stroke-miterlimit="10"/>
<path d="M1 261.727C65.7397 261.996 130.479 262.704 195.219 263.328C253.603 263.894 318.361 271.077 373.614 253.651C438.26 233.25 491.732 196.697 552.778 171.266C603.4 150.142 650.066 146.019 707.25 151.899C869.108 168.532 1006.65 248.027 1171.34 255.904C1269.38 260.607 1365.16 237.231 1459.85 221.576C1568.59 203.625 1664.66 207.309 1773.96 220.966C1837.47 228.9 1901.01 238.293 1965.2 242.416C2015.21 245.632 2065.64 244.343 2115.74 246.95C2211 251.908 2305.1 261.117 2400.85 261.727" stroke="white" stroke-miterlimit="10"/>
<path d="M1 252.787C65.7022 253.141 130.367 253.708 195.088 254.203C253.603 254.685 318.061 261.84 373.427 244.385C437.998 224.041 491.751 187.871 552.722 162.61C603.456 141.571 649.878 137.335 707.118 143.257C869.071 160.017 1006.99 238.803 1171.58 246.808C1269.41 251.582 1365.41 228.248 1459.96 212.806C1568.7 195.025 1664.68 198.638 1773.98 212.182C1837.37 220.059 1900.78 229.382 1964.86 233.505C2014.89 236.735 2065.32 235.502 2115.44 238.095C2210.79 243.011 2305.16 252.05 2400.91 252.787" stroke="white" stroke-miterlimit="10"/>
<path d="M1 243.974C65.6335 244.418 130.267 244.834 194.9 245.221C253.528 245.59 317.668 252.688 373.164 235.304C437.641 215.058 491.601 179.313 552.591 154.251C603.475 133.382 649.709 129.047 707.006 134.997C868.79 151.786 1007.31 229.793 1171.85 237.939C1269.47 242.77 1365.61 219.521 1460.05 204.291C1568.8 186.723 1664.62 190.123 1773.89 203.668C1837.13 211.488 1900.41 220.669 1964.32 224.848C2014.36 228.078 2064.81 226.888 2114.95 229.453C2210.46 234.34 2305.02 243.252 2400.91 244.031" stroke="white" stroke-miterlimit="10"/>
<path d="M1 235.474C65.5335 235.97 130.086 236.197 194.638 236.466C253.359 236.721 317.236 243.72 372.752 226.379C437.173 206.303 491.338 171.011 552.366 146.19C603.287 125.477 649.447 121.085 706.687 127.021C868.49 143.838 1007.59 220.995 1172.07 229.198C1269.56 234.057 1365.75 211.035 1460.07 196.017C1568.65 178.733 1664.43 182.005 1773.63 195.436C1836.7 203.186 1899.79 212.31 1963.53 216.419C2013.57 219.649 2064.06 218.515 2114.22 221.051C2209.84 225.883 2304.72 234.652 2400.79 235.474" stroke="white" stroke-miterlimit="10"/>
<path d="M1 227.101C65.4397 227.653 129.879 227.682 194.338 227.795C253.097 227.908 316.73 234.794 372.452 217.594C436.798 197.76 491.207 162.907 552.272 138.383C603.287 117.883 649.391 113.434 706.593 119.37C868.415 136.145 1008.15 212.381 1172.61 220.626C1269.83 225.514 1366.16 202.747 1460.37 188.041C1568.81 171.04 1664.58 174.199 1773.48 187.502C1836.34 195.195 1899.23 204.206 1962.84 208.286C2012.92 211.516 2063.43 210.426 2113.6 212.919C2209.56 217.679 2304.63 226.307 2400.93 227.087" stroke="white" stroke-miterlimit="10"/>
<path d="M1 218.94C65.3272 219.507 129.654 219.323 193.982 219.28C252.778 219.28 316.149 225.996 371.889 208.952C436.16 189.316 490.813 155.03 551.878 130.832C602.987 110.572 649.072 106.123 706.237 112.017C868.115 128.707 1008.52 203.979 1172.97 212.239C1270.09 217.056 1366.44 194.671 1460.58 180.22C1568.83 163.587 1664.53 166.591 1773.27 179.767C1887.24 193.58 1997.92 199.318 2112.74 204.914C2208.96 209.604 2304.35 218.076 2400.91 218.94" stroke="white" stroke-miterlimit="10"/>
<path d="M1 210.978C65.196 211.545 129.373 211.134 193.588 210.893C252.366 210.681 315.455 217.297 371.308 200.48C435.542 181.113 490.438 147.38 551.578 123.536C602.8 103.573 648.884 99.139 705.993 104.976C867.946 121.538 1009.09 195.776 1173.55 204.008C1270.37 208.853 1366.66 186.822 1460.78 172.683C1568.78 156.447 1664.45 159.309 1772.9 172.343C1886.64 186.001 1997.13 191.71 2111.72 197.179C2208.24 201.798 2304.01 210.1 2400.85 210.978" stroke="white" stroke-miterlimit="10"/>
<path d="M1 203.2C65.046 203.753 129.092 203.115 193.138 202.676C251.897 202.265 314.855 208.726 370.689 192.149C434.904 173.136 490.063 139.956 551.259 116.466C602.575 96.8154 648.753 92.3809 705.75 98.1896C867.815 114.582 1009.72 187.743 1174.23 195.946C1270.84 200.749 1367.15 179.172 1461.08 165.373C1568.8 149.561 1664.43 152.282 1772.54 165.16C1886.03 178.662 1996.33 184.315 2110.66 189.656C2207.53 194.19 2303.77 202.308 2400.85 203.186" stroke="white" stroke-miterlimit="10"/>
<path d="M1 195.634C64.896 196.159 128.755 195.266 192.651 194.6C251.353 194.005 314.124 200.267 369.996 183.989C434.098 165.287 489.538 132.744 550.791 109.736C602.2 90.4256 648.453 86.0903 705.356 91.7715C867.571 107.965 1010.29 179.979 1174.83 188.111C1271.25 192.858 1367.49 171.804 1461.4 158.359C1568.78 143.002 1664.41 145.609 1772.15 158.274C1885.37 171.62 1995.44 177.217 2109.49 182.359C2206.74 186.78 2303.32 194.728 2400.85 195.606" stroke="white" stroke-miterlimit="10"/>
<path d="M1 188.253C64.746 188.735 128.492 187.573 192.126 186.695C250.772 185.873 313.355 191.951 369.227 175.984C433.31 157.679 489.013 125.76 550.341 103.205C601.825 84.2768 648.21 80.0123 705.018 85.5944C867.365 101.547 1010.92 172.385 1175.61 180.376C1271.83 185.037 1367.98 164.565 1461.85 151.516C1568.85 136.64 1664.47 139.091 1771.79 151.587C1884.71 164.749 1994.56 170.274 2108.33 175.304C2205.99 179.639 2303 187.375 2400.93 188.253" stroke="white" stroke-miterlimit="10"/>
<path d="M1 181.07C64.5398 181.495 128.023 180.064 191.563 178.945C250.116 177.897 312.531 183.762 368.421 168.149C432.467 150.256 488.413 118.988 549.834 96.9285C601.431 78.3973 647.985 74.2603 704.643 79.7007C867.196 95.3843 1011.66 164.99 1176.36 172.839C1272.4 177.387 1368.41 157.552 1462.21 144.928C1568.81 130.562 1664.43 132.886 1771.28 145.169C1883.91 158.133 1993.53 163.587 2106.89 168.461C2204.98 172.711 2302.47 180.206 2400.81 181.07" stroke="white" stroke-miterlimit="10"/>
<path d="M1 174.086C64.3523 174.454 127.63 172.669 190.963 171.351C249.422 170.076 311.668 175.715 367.577 160.471C431.567 143.03 487.832 112.442 549.31 90.8933C601.056 72.7871 647.835 68.721 704.325 74.0763C867.046 89.4624 1012.37 157.793 1177.19 165.5C1273.01 169.977 1368.88 150.766 1462.64 138.582C1568.78 124.754 1664.43 126.936 1770.78 139.021C1883.08 151.772 1992.44 157.127 2105.57 161.831C2204.12 165.925 2302.12 173.264 2400.91 174.1" stroke="white" stroke-miterlimit="10"/>
<path d="M1 167.299C64.1648 167.583 127.217 165.571 190.363 163.927C248.71 162.397 310.787 167.824 366.696 152.976C430.667 135.975 487.232 106.109 548.785 85.0987C600.55 67.4317 647.516 63.4931 703.894 68.7068C866.84 83.7811 1013.08 150.794 1178.03 158.331C1273.65 162.695 1369.36 144.164 1463.01 132.433C1568.68 119.172 1664.36 121.226 1770.16 133.085C1882.16 145.623 1991.26 150.865 2104.04 155.384C2203.07 159.366 2301.59 166.478 2400.85 167.299" stroke="white" stroke-miterlimit="10"/>
<path d="M1 160.697C63.9586 160.91 126.767 158.586 189.669 156.66C247.885 154.889 309.812 160.074 365.721 145.651C429.729 129.217 486.595 99.989 548.222 79.5451C600.063 62.3456 647.291 58.5345 703.5 63.6065C866.615 78.3267 1013.85 143.994 1178.95 151.333C1274.36 155.583 1369.89 137.817 1463.54 126.525C1568.7 113.774 1664.4 115.772 1769.65 127.389C1881.3 139.715 1990.12 144.83 2102.56 149.179C2202.09 153.018 2301.16 159.918 2400.91 160.697" stroke="white" stroke-miterlimit="10"/>
<path d="M1 154.308C63.7523 154.421 126.317 151.772 188.994 149.576C247.116 147.535 308.837 152.409 364.746 138.496C428.661 122.501 485.826 94.0809 547.547 74.2179C599.481 57.5001 646.916 53.8448 703.012 58.761C866.446 73.1128 1014.56 137.391 1179.83 144.532C1275.06 148.641 1370.38 131.654 1463.97 120.829C1568.61 108.744 1664.32 110.558 1769 121.935C1976.4 144.475 2191.09 152.735 2400.83 154.308" stroke="white" stroke-miterlimit="10"/>
<path d="M1 148.102C63.5461 148.102 125.848 145.155 188.282 142.662C246.235 140.353 307.825 145.042 363.715 131.512C427.63 116.041 485.095 88.3857 546.91 69.1744C598.9 52.9525 646.691 49.4672 702.525 54.2276C866.221 68.1685 1015.29 131.044 1180.73 137.972C1275.92 141.883 1371 125.689 1464.53 115.375C1568.63 103.885 1664.36 105.571 1768.41 116.707C1976.15 138.922 2190.86 146.629 2400.85 148.102" stroke="white" stroke-miterlimit="10"/>
<path d="M1 142.095C63.3399 142.01 125.38 138.709 187.57 135.918C245.372 133.339 306.793 137.774 362.684 124.711C426.598 109.793 484.401 82.8886 546.31 64.2298C598.375 48.5462 646.466 45.2168 702.206 49.878C866.202 63.4222 1016.25 124.867 1181.88 131.554C1276.67 135.309 1371.54 119.923 1465.06 110.119C1568.57 99.2522 1664.32 100.825 1767.78 111.706C1975.89 133.566 2190.66 140.721 2400.91 142.095" stroke="white" stroke-miterlimit="10"/>
<path d="M1 136.301C63.1149 136.088 124.873 132.461 186.82 129.359C244.491 126.525 305.725 130.662 361.596 118.095C425.473 103.715 483.576 77.6183 545.578 59.5829C597.775 44.4094 646.185 41.2641 701.719 45.6278C865.996 58.747 1017.02 118.733 1182.87 125.179C1277.5 128.849 1372.23 114.313 1465.6 105.019C1568.53 94.7895 1664.34 96.2488 1767.1 106.86C1975.51 128.424 2190.41 135.011 2400.85 136.301" stroke="white" stroke-miterlimit="10"/>
<path d="M1 130.633C62.8711 130.308 124.367 126.383 186.07 122.926C243.591 119.753 304.637 123.691 360.434 111.592C424.442 97.8494 482.845 72.546 544.941 55.134C597.213 40.513 645.96 37.5378 701.25 41.8022C865.827 54.4681 1017.82 112.98 1183.9 119.172C1278.32 122.685 1372.8 109.014 1466.15 100.258C1568.4 90.6523 1664.25 92.0124 1766.43 102.298C1975.25 123.55 2190.15 129.5 2400.85 130.633" stroke="white" stroke-miterlimit="10"/>
<path d="M1 125.278C62.6836 124.825 123.861 120.504 185.301 116.778C242.691 113.307 303.531 116.976 359.403 105.443C423.261 92.1967 481.982 67.7009 544.172 50.9406C596.425 36.8721 645.547 34.0669 700.706 38.1897C865.696 50.4022 1018.59 107.427 1184.91 113.363C1279.18 116.664 1373.41 103.843 1466.71 95.6395C1568.4 86.7139 1664.19 87.9323 1765.73 98.048C1974.8 118.733 2189.91 124.201 2400.85 125.278" stroke="white" stroke-miterlimit="10"/>
<path d="M1 120.05C62.4587 119.484 123.355 114.823 184.514 110.785C241.791 107.016 302.387 110.431 358.278 99.3515C422.136 86.6856 481.157 62.9974 543.46 46.9313C595.769 33.4153 645.228 30.7943 700.219 34.7046C865.471 46.4779 1019.42 101.987 1185.98 107.654C1279.99 110.856 1374.03 98.9123 1467.21 91.2476C1568.35 82.9454 1664.08 84.1638 1764.96 93.897C1974.45 114.199 2189.64 119.101 2400.85 120.05" stroke="white" stroke-miterlimit="10"/>
<path d="M1 115.049C62.2337 114.341 122.867 109.382 183.726 104.99C240.985 100.881 301.281 104.055 357.228 93.4718C421.105 81.3868 480.426 58.5344 542.841 43.0917C595.207 30.1283 645.003 27.7057 699.825 31.4459C865.321 42.7942 1020.28 96.7445 1187.11 102.142C1280.85 105.174 1374.75 94.1235 1467.85 87.0114C1566.49 79.396 1665.96 80.3753 1764.31 89.9299C1974.07 109.85 2189.38 114.199 2400.85 115.049" stroke="white" stroke-miterlimit="10"/>
<path d="M1 110.204C62.0274 109.382 122.305 104.027 182.864 99.3515C239.935 94.9454 299.988 97.9347 355.915 87.8049C419.793 76.2866 479.433 54.27 541.941 39.479C594.438 27.0823 644.516 24.8438 699.169 28.4141C865.321 39.2382 1021.11 91.7293 1188.19 96.8438C1281.81 99.6774 1375.42 89.5475 1468.41 83.002C1566.67 75.9344 1665.65 77.0081 1763.6 86.2039C1973.71 105.684 2189.19 109.481 2400.91 110.204" stroke="white" stroke-miterlimit="10"/>
<path d="M1 105.585C61.8024 104.622 121.78 98.9121 182.151 93.911C239.129 89.1931 298.881 91.8991 354.847 82.3218C418.743 71.3844 478.683 50.2038 541.285 36.0786C593.782 24.2345 644.254 22.1802 698.775 25.5804C865.077 35.937 1021.87 86.898 1189.24 91.7575C1282.67 94.4635 1376.06 85.1695 1468.96 79.1908C1566.82 72.6706 1665.31 73.8386 1762.85 82.676C1973.38 101.717 2188.88 104.976 2400.85 105.585" stroke="white" stroke-miterlimit="10"/>
<path d="M1 101.151C61.5962 100.06 121.255 94.0667 181.364 88.683C238.266 83.6393 297.606 86.1186 353.722 77.0372C417.618 66.6806 477.839 46.3217 540.554 32.8625C593.05 21.5284 643.916 19.7149 698.269 22.9451C864.927 32.8625 1022.62 82.2792 1190.31 86.8554C1283.53 89.4055 1376.71 80.99 1469.52 75.5212C1568.23 69.7692 1663.7 70.5909 1762.1 79.2757C1972.96 97.9345 2188.61 100.655 2400.85 101.151" stroke="white" stroke-miterlimit="10"/>
<path d="M1 96.9145C61.39 95.6961 120.73 89.2923 180.576 83.6536C237.423 78.2841 296.5 80.5367 352.578 71.9511C416.493 62.1613 477.014 42.6525 539.841 29.8308C592.338 19.1059 643.56 17.4199 697.781 20.4943C864.796 29.9158 1023.43 77.8449 1191.38 82.1518C1382.79 87.068 1569.7 59.7103 1761.51 76.1873C1972.66 94.3218 2188.43 96.532 2400.98 96.9145" stroke="white" stroke-miterlimit="10"/>
<path d="M1 92.8768C61.1837 91.545 120.224 84.7871 179.808 78.8225C236.598 73.1554 295.3 75.1672 351.453 67.0633C415.387 57.8402 476.189 39.1673 539.129 26.9973C591.738 16.8249 643.204 15.3231 697.294 18.2133C864.683 27.1956 1024.22 73.6088 1192.47 77.7174C1383.05 82.2935 1569.92 57.3302 1760.69 73.2829C1972.21 90.9641 2188.11 92.6076 2400.85 92.8768" stroke="white" stroke-miterlimit="10"/>
<path d="M1 89.0372C60.9963 87.6205 119.718 80.5367 179.114 74.2037C235.867 68.1825 294.175 69.9534 350.422 62.3879C414.355 53.7173 475.439 35.8661 538.473 24.3762C591.138 14.7422 642.885 13.4104 696.882 16.1448C864.627 24.6453 1024.99 69.5992 1193.58 73.382C1383.35 77.6323 1570.24 55.0491 1760.05 70.5485C1971.91 87.7622 2187.84 88.9664 2400.91 89.1364" stroke="white" stroke-miterlimit="10"/>
<path d="M1 85.3962C60.8088 83.8236 119.211 76.3856 178.27 69.8118C235.023 63.4788 292.919 65.1081 349.241 57.9534C413.23 49.8071 474.595 32.7917 537.723 21.8968C590.501 12.7728 642.51 11.6253 696.413 14.1896C864.515 22.2793 1025.75 65.7315 1194.61 69.2592C1383.61 73.2262 1570.45 52.9523 1759.36 67.8425C1971.5 84.5886 2187.6 85.297 2400.85 85.3962" stroke="white" stroke-miterlimit="10"/>
<path d="M1 81.9394C60.6775 80.2534 118.78 72.5462 177.595 65.5899C234.329 58.917 291.813 60.362 348.21 53.6608C467.565 39.4931 572.97 6.83673 695.925 12.4329C864.402 20.126 1026.56 62.0763 1195.64 65.3774C1383.88 69.0326 1570.61 51.0397 1758.7 65.3774C1971.15 81.6843 2187.36 81.9819 2400.85 81.9394" stroke="white" stroke-miterlimit="10"/>
<path d="M1 78.6951C60.4525 76.91 118.236 68.7777 176.808 61.6089C233.542 54.6101 290.594 55.871 347.122 49.6089C466.477 36.3905 572.989 5.56171 695.494 10.8321C864.234 18.0859 1027.18 58.6337 1196.63 61.6939C1384.12 65.08 1570.82 49.2831 1758.05 63.1107C1970.81 78.8934 2187.13 78.6951 2400.91 78.6951" stroke="white" stroke-miterlimit="10"/>
<path d="M1 75.6349C60.2838 73.7506 117.786 65.3492 176.114 57.8261C232.848 50.5156 289.469 51.6207 346.11 45.7837C465.333 33.4861 572.97 4.42831 694.988 9.37281C864.159 16.23 1027.78 55.3751 1197.46 58.2087C1384.29 61.3397 1570.82 47.6963 1757.3 61.0422C1970.34 76.3433 2186.76 75.8049 2400.77 75.5924" stroke="white" stroke-miterlimit="10"/>
<path d="M1 72.7727C60.1338 70.8034 117.243 62.0903 175.364 54.3548C232.117 46.7326 288.326 47.6535 345.078 42.2273C464.321 30.7657 572.97 3.40798 694.707 8.06913C864.121 14.5579 1028.44 52.3005 1198.53 54.9498C1384.68 57.7833 1571.06 46.2651 1756.83 59.2001C1970.17 73.9628 2186.66 73.0702 2400.85 72.7727" stroke="white" stroke-miterlimit="10"/>
<path d="M1 70.1093C59.9838 68.055 116.887 59.0444 174.764 50.9547C231.536 43.0208 287.257 43.8709 344.179 38.7564C463.252 28.2157 572.914 2.50145 694.144 6.89341C864.027 13.0422 1029.09 49.4388 1199.43 51.8898C1385.04 54.5675 1571.16 44.976 1756.27 57.401C1969.89 71.767 2186.48 70.4777 2400.93 70.1518" stroke="white" stroke-miterlimit="10"/>
<path d="M1 67.6442C59.8526 65.5191 116.474 56.2109 174.145 47.8095C230.917 39.5781 286.301 40.2015 343.279 35.5403C462.334 25.793 572.839 1.70802 693.807 5.85914C863.952 11.6254 1029.67 46.7469 1200.29 49.0421C1385.24 51.5214 1571.21 43.8284 1755.7 55.8001C1969.63 69.7127 2186.25 68.0692 2400.85 67.6442" stroke="white" stroke-miterlimit="10"/>
<path d="M1 65.3775C59.7401 63.1956 116.08 53.6041 173.489 44.976C230.279 36.4755 285.288 36.943 342.379 32.6219C461.396 23.6396 572.839 1.04216 693.413 4.95243C863.877 10.4778 1030.31 44.211 1201.11 46.407C1385.51 48.7163 1571.27 42.8084 1755.18 54.355C1969.35 67.786 2186.04 65.845 2400.91 65.3775" stroke="white" stroke-miterlimit="10"/>
<path d="M1 63.3089C59.6838 61.0704 115.762 51.2947 173.039 42.3266C229.829 33.5285 284.501 33.826 341.779 29.9016C460.534 21.6135 572.727 0.447071 693.057 4.15899C863.784 9.41519 1030.74 41.9724 1201.88 43.9984C1385.79 46.1661 1571.23 41.9299 1754.71 53.0515C1969.1 66.0291 2185.93 63.8048 2400.91 63.3089" stroke="white" stroke-miterlimit="10"/>
<path d="M1 61.4247C59.5901 59.1579 115.368 49.0422 172.514 39.9608C229.304 30.8793 283.657 31.1343 340.916 27.4366C459.709 19.7577 572.633 -0.0486714 692.7 3.47907C863.709 8.50859 1031.21 39.8758 1202.67 41.7317C1602.51 46.1945 2000.99 62.3456 2400.98 61.3681" stroke="white" stroke-miterlimit="10"/>
<path d="M1 59.7951C59.5151 57.4575 115.087 47.0442 172.027 37.7503C228.967 28.4563 282.889 28.5413 340.223 25.1269C458.959 18.0431 572.539 -0.459903 692.382 2.92617C863.652 7.75734 1031.74 37.9628 1203.25 39.7621C1386.33 41.7172 1571.27 40.5413 1753.87 50.827C1968.71 62.9545 2185.5 60.2768 2400.85 59.7951" stroke="white" stroke-miterlimit="10"/>
<path d="M1 58.2651C59.4026 55.97 114.73 45.3867 171.614 35.8094C228.498 26.2321 282.232 26.2604 339.623 23.0585C458.303 16.5272 572.464 -0.828134 692.101 2.43042C863.596 7.10575 1032.07 36.2203 1203.94 38.0054C1386.54 39.9605 1571.21 40.1872 1753.51 49.9771C1968.58 61.5379 2185.33 58.7893 2400.91 58.2651" stroke="white" stroke-miterlimit="10"/>
<path d="M1 56.9619C59.3464 54.6809 114.468 43.871 171.127 34.1095C227.786 24.348 281.52 24.1921 338.966 21.2736C457.628 15.1957 572.333 -1.12544 691.801 2.09062C863.502 6.6526 1032.41 34.6762 1204.41 36.4897C1386.86 38.3598 1571.2 39.7624 1753.21 49.2405C1968.45 60.4188 2185.24 57.4861 2400.85 56.9619" stroke="white" stroke-miterlimit="10"/>
<path d="M1 55.8849C59.3089 53.6181 114.224 42.624 170.771 32.6642C227.317 22.7043 280.995 22.506 338.479 19.7291C457.028 14.0621 572.183 -1.28146 691.482 1.82125C863.371 6.29822 1032.71 33.4009 1204.82 35.1719C1387.03 37.042 1571.1 39.4221 1752.89 48.6028C1968.28 59.4552 2185.01 56.3525 2400.85 55.8849" stroke="white" stroke-miterlimit="10"/>
<path d="M1 54.9926C59.3464 52.7116 114.074 41.59 170.527 31.4601C226.98 21.3302 280.601 21.0327 338.104 18.4117C456.597 13.0422 572.164 -1.45133 691.313 1.70805C863.446 6.07169 1032.99 32.2535 1205.29 34.067C1387.29 35.9938 1571.12 39.2381 1752.76 48.1071C1968.28 58.6337 2184.99 55.4176 2400.93 54.9926" stroke="white" stroke-miterlimit="10"/>
<path d="M1 54.2984C59.2901 52.1307 113.849 40.7966 170.208 30.5109C226.567 20.2252 280.358 19.8427 337.748 17.2925C456.184 12.1497 572.108 -1.56456 691.126 1.52398C863.296 5.97261 1033.22 31.276 1205.63 33.1886C1387.49 35.1862 1571.08 39.1107 1752.57 47.7388C1968.18 57.9819 2184.88 54.6384 2400.91 54.2984" stroke="white" stroke-miterlimit="10"/>
<path d="M1 53.7884C59.2901 51.7057 113.718 40.2299 170.021 29.8167C226.323 19.4035 279.964 18.936 337.429 16.485C455.847 11.4555 572.089 -1.63545 690.957 1.48143C863.221 5.9584 1033.39 30.5393 1205.89 32.5511C1387.76 34.6479 1571.05 39.0682 1752.48 47.4696C1968.22 57.472 2184.83 54.0434 2400.91 53.7884" stroke="white" stroke-miterlimit="10"/>
<path d="M1 53.4907C59.3276 51.4931 113.605 39.9039 169.871 29.4057C226.136 18.9075 279.814 18.3691 337.26 15.9465C455.565 10.9311 572.089 -1.67806 690.826 1.50965C863.146 6.14247 1033.52 30.0433 1206.06 32.1259C1387.81 34.3927 1571.03 39.0964 1752.46 47.3278C1968.24 57.1176 2184.77 53.6324 2400.91 53.4907" stroke="white" stroke-miterlimit="10"/>
<path d="M1 53.3773C59.3651 51.5072 113.493 39.8047 169.739 29.179C225.986 18.5533 279.739 18.0007 337.11 15.5639C455.228 10.5627 572.014 -1.70649 690.601 1.59458C862.959 6.41158 1033.48 29.5899 1206.04 31.9275C1387.91 34.3927 1570.91 39.2097 1752.37 47.2852C1968.31 56.9617 2184.75 53.3915 2400.85 53.3773" stroke="white" stroke-miterlimit="10"/>
</svg>
