<svg width="3603" height="551" viewBox="0 0 3603 551" fill="none" xmlns="http://www.w3.org/2000/svg">
<rect width="3603" height="551" fill="#2B2B2B"/>
<g clip-path="url(#clip0_0_1)">
<rect width="1680" height="5788" transform="translate(-1679 -647)" fill="white"/>
<g filter="url(#filter0_d_0_1)">
<rect x="-1679" y="-647" width="1680" height="5788" fill="#222223"/>
</g>
<path d="M-1479 583.925C-1407.64 583.925 -1332.03 593.517 -1261.19 582.296C-1226.73 576.827 -1193.42 563.949 -1159.32 556.213C-1128.1 549.13 -1096.76 549.37 -1065.15 550.546C-957.864 554.641 -852.074 581.149 -744.642 582.452C-628.539 583.869 -514.563 562.617 -398.193 571.614C-265.696 581.814 -131.879 583.925 0.907532 583.883" stroke="white" stroke-opacity="0.04" stroke-miterlimit="10"/>
<path d="M-1479 571.642C-1407.73 571.642 -1330.74 582.736 -1260.19 569.375C-1225.38 562.773 -1192.04 548.053 -1157.68 538.958C-1126.46 530.684 -1095.24 530.627 -1063.44 532.2C-956.928 537.456 -852.363 567.803 -745.648 569.815C-688.834 570.877 -632.666 563.213 -576.164 557.191C-516.193 550.802 -457.17 551.779 -397.176 557.078C-265.141 568.71 -131.498 571.486 0.90741 571.642" stroke="white" stroke-opacity="0.04" stroke-miterlimit="10"/>
<path d="M-1479 559.543C-1441.05 559.543 -1403.12 559.94 -1365.17 560.237C-1330.25 560.521 -1293.73 564.261 -1259.18 556.61C-1223.98 548.832 -1190.6 532.242 -1155.98 521.744C-1124.76 512.251 -1093.73 511.826 -1061.67 513.81C-955.934 520.27 -852.699 554.556 -746.677 557.305C-689.574 558.721 -633.175 549.668 -576.476 542.797C-515.904 535.458 -456.731 536.591 -396.113 542.613C-264.574 555.675 -131.117 559.189 0.89563 559.543" stroke="white" stroke-opacity="0.04" stroke-miterlimit="10"/>
<path d="M-1479 547.642C-1440.85 547.642 -1402.69 548.096 -1364.54 548.436C-1329.47 548.747 -1292.68 552.799 -1258.09 544.029C-1222.53 535.019 -1189.11 516.558 -1154.22 504.629C-1122.89 493.918 -1092.19 493.125 -1059.84 495.505C-954.87 503.198 -853.034 541.465 -747.671 544.965C-690.267 546.877 -633.614 536.294 -576.731 528.558C-515.453 520.228 -456.245 521.545 -394.956 528.303C-263.927 542.754 -130.654 547.076 0.965275 547.642" stroke="white" stroke-opacity="0.04" stroke-miterlimit="10"/>
<path d="M-1479 535.94C-1440.66 536.025 -1402.32 536.464 -1363.97 536.832C-1328.75 537.186 -1291.69 541.522 -1257.07 531.647C-1221.1 521.375 -1187.7 501.059 -1152.52 487.727C-1121.12 475.798 -1090.74 474.594 -1058.07 477.399C-953.841 486.353 -853.427 528.601 -748.781 532.879C-691.1 535.245 -634.158 523.146 -577.1 514.547C-515.222 505.224 -455.887 506.726 -393.927 514.235C-263.395 530.018 -130.319 535.189 0.907532 535.982" stroke="white" stroke-opacity="0.04" stroke-miterlimit="10"/>
<path d="M-1479 524.436C-1440.46 524.535 -1401.92 525.017 -1363.38 525.427C-1327.99 525.81 -1290.67 530.429 -1256.03 519.463C-1219.66 507.945 -1186.23 485.786 -1150.82 470.981C-1119.35 457.834 -1089.32 456.219 -1056.3 459.463C-952.789 469.635 -853.97 515.864 -749.856 520.908C-691.886 523.742 -634.643 510.112 -577.447 500.662C-514.886 490.334 -455.528 492.049 -392.863 500.28C-262.851 517.352 -129.949 523.43 0.884538 524.436" stroke="white" stroke-opacity="0.04" stroke-miterlimit="10"/>
<path d="M-1479 513.13C-1440.27 513.243 -1401.54 513.767 -1362.79 514.221C-1327.22 514.631 -1289.66 519.519 -1255.01 507.491C-1218.24 494.74 -1184.81 470.783 -1149.1 454.561C-1117.58 440.251 -1087.9 438.183 -1054.52 441.81C-951.679 453.144 -854.375 503.34 -750.862 509.106C-692.591 512.421 -634.99 497.29 -577.69 487.061C-514.459 475.727 -455.135 477.654 -391.742 486.608C-262.25 504.912 -129.498 511.911 0.942251 513.13" stroke="white" stroke-opacity="0.04" stroke-miterlimit="10"/>
<path d="M-1479 502.022C-1440.08 502.136 -1401.15 502.703 -1362.23 503.198C-1326.48 503.652 -1288.69 508.795 -1254.02 495.76C-1216.86 481.777 -1183.49 456.091 -1147.47 438.509C-1115.89 423.052 -1086.55 420.558 -1052.82 424.695C-950.604 437.205 -854.861 491.283 -751.857 497.673C-693.366 501.342 -635.464 484.795 -578.025 473.73C-514.123 461.418 -454.823 463.557 -390.725 473.22C-261.73 492.672 -129.128 500.606 0.942251 502.022" stroke="white" stroke-opacity="0.04" stroke-miterlimit="10"/>
<path d="M-1479 491.099C-1439.9 491.241 -1400.8 491.85 -1361.69 492.374C-1325.76 492.856 -1287.77 498.254 -1253.09 484.27C-1215.53 469.125 -1182.13 441.767 -1145.91 422.868C-1114.3 406.348 -1085.26 403.43 -1051.19 407.977C-949.552 421.55 -855.369 479.312 -752.816 486.395C-694.071 490.447 -635.846 472.525 -578.303 460.695C-513.777 447.434 -454.522 449.8 -389.788 460.129C-261.279 480.643 -128.804 489.526 0.907532 491.099" stroke="white" stroke-opacity="0.04" stroke-miterlimit="10"/>
<path d="M-1479 480.388C-1439.69 480.53 -1400.46 481.168 -1361.19 481.805C-1325.1 482.315 -1286.9 487.954 -1252.23 473.12C-1214.24 456.799 -1180.87 427.869 -1144.4 407.694C-1112.78 390.197 -1084.01 386.882 -1049.6 391.812C-948.465 406.348 -855.809 467.722 -753.614 475.401C-694.649 479.793 -636.1 460.582 -578.465 448.044C-513.349 433.876 -454.152 436.469 -388.852 447.434C-319.585 459.066 -251.787 464.025 -182.115 468.544C-121.035 472.525 -60.2774 479.623 0.942251 480.445" stroke="white" stroke-opacity="0.04" stroke-miterlimit="10"/>
<path d="M-1479 469.862C-1439.57 470.018 -1400.15 470.698 -1360.72 471.279C-1324.5 471.817 -1286.09 477.696 -1251.43 462.084C-1213.14 444.828 -1179.75 414.395 -1143.1 393.059C-1111.49 374.641 -1082.92 370.986 -1048.29 376.285C-947.598 391.642 -856.444 456.445 -754.62 464.506C-695.412 469.196 -636.597 448.823 -578.881 435.619C-513.221 420.615 -454.083 423.406 -388.111 434.981C-318.521 447.179 -250.526 452.436 -180.508 457.281C-119.982 461.531 -59.8264 468.998 0.861392 469.848" stroke="white" stroke-opacity="0.04" stroke-miterlimit="10"/>
<path d="M-1479 459.534C-1439.44 459.704 -1399.87 460.412 -1360.3 461.035C-1323.99 461.602 -1285.35 467.708 -1250.74 451.444C-1212.1 433.281 -1178.79 401.461 -1141.89 379.047C-1110.31 359.864 -1081.88 355.897 -1046.97 361.48C-946.638 377.517 -856.907 445.564 -755.279 453.966C-695.84 458.868 -636.805 437.475 -578.985 423.675C-512.863 407.879 -453.759 410.925 -387.337 422.995C-317.458 435.746 -249.289 441.215 -178.948 446.372C-118.919 450.764 -59.2946 458.655 0.907532 459.534" stroke="white" stroke-opacity="0.04" stroke-miterlimit="10"/>
<path d="M-1479 449.404C-1439.31 449.574 -1399.63 450.311 -1359.91 450.962C-1323.55 451.543 -1284.68 457.89 -1250.08 441.045C-1211.13 422.103 -1177.87 388.993 -1140.78 365.645C-1109.24 345.81 -1080.88 341.56 -1045.78 347.411C-945.725 363.959 -857.323 435.024 -755.869 443.609C-696.268 448.71 -637.037 426.452 -579.124 412.115C-512.62 395.638 -453.528 398.854 -386.689 411.435C-316.544 424.639 -248.226 430.278 -177.595 435.704C-117.994 440.294 -58.8553 448.526 0.942251 449.404" stroke="white" stroke-opacity="0.04" stroke-miterlimit="10"/>
<path d="M-1479 439.472C-1439.22 439.642 -1399.42 440.407 -1359.64 441.073C-1323.3 441.682 -1284.14 448.242 -1249.68 431.057C-1210.44 411.491 -1177.25 377.22 -1140 353.05C-1108.51 332.648 -1080.15 328.341 -1044.91 334.292C-945.054 351.151 -857.878 424.965 -756.481 433.607C-696.58 438.707 -637.314 415.827 -579.286 401.021C-512.493 383.949 -453.389 387.35 -386.204 400.341C-315.816 413.956 -247.37 419.708 -176.485 425.361C-117.242 430.093 -58.5547 438.651 0.942251 439.529" stroke="white" stroke-opacity="0.04" stroke-miterlimit="10"/>
<path d="M-1479 429.739C-1439.13 429.895 -1399.22 430.688 -1359.4 431.382C-1323.15 431.992 -1283.69 438.778 -1249.36 421.366C-1209.85 401.319 -1176.74 365.999 -1139.34 341.205C-1107.95 320.393 -1079.48 316.072 -1044.18 322.079C-944.407 339.08 -858.306 415.33 -756.909 423.831C-696.788 428.875 -637.522 405.583 -579.355 390.353C-512.389 372.799 -453.239 376.369 -385.892 389.687C-346.917 397.394 -307.919 406.447 -268.528 410.584C-237.681 413.829 -206.569 412.709 -175.652 415.26C-116.687 420.105 -58.2888 428.931 0.907532 429.739" stroke="white" stroke-opacity="0.04" stroke-miterlimit="10"/>
<path d="M-1479 420.19C-1439.08 420.346 -1399.17 421.168 -1359.24 421.862C-1323.15 422.485 -1283.35 429.498 -1249.19 412.015C-1209.45 391.699 -1176.43 355.487 -1138.91 330.211C-1107.62 309.13 -1078.97 304.936 -1043.68 310.887C-943.898 327.718 -858.688 406.164 -757.198 414.311C-696.834 419.17 -637.707 395.737 -579.39 380.167C-512.331 362.273 -453.112 365.999 -385.707 379.557C-346.582 387.42 -307.433 396.7 -267.881 400.809C-237.045 404.053 -205.956 402.806 -175.063 405.399C-116.271 410.344 -58.1153 419.411 0.907532 420.119" stroke="white" stroke-opacity="0.04" stroke-miterlimit="10"/>
<path d="M-1479 410.868C-1439.05 411.01 -1399.12 411.831 -1359.17 412.54C-1323.33 413.177 -1283.14 420.389 -1249.16 403.019C-1209.22 382.533 -1176.29 345.697 -1138.7 320.195C-1107.49 298.944 -1078.58 295.062 -1043.39 300.87C-943.516 317.319 -858.942 397.451 -757.314 405.158C-696.73 409.749 -637.811 386.415 -579.332 370.632C-512.378 352.54 -452.996 356.365 -385.649 370.065C-346.443 378.041 -307.214 387.491 -267.557 391.6C-236.722 394.802 -205.632 393.442 -174.739 396.063C-116.04 401.036 -57.9651 410.23 0.999975 410.896" stroke="white" stroke-opacity="0.04" stroke-miterlimit="10"/>
<path d="M-1479 401.701C-1439.08 401.97 -1399.15 402.679 -1359.23 403.302C-1323.23 403.869 -1283.29 411.052 -1249.22 393.626C-1209.36 373.224 -1176.38 336.672 -1138.74 311.241C-1107.52 290.117 -1078.74 285.994 -1043.48 291.874C-943.667 308.506 -858.849 388.001 -757.291 395.878C-696.834 400.582 -637.765 377.205 -579.378 361.55C-512.32 343.6 -453.077 347.283 -385.672 360.941C-346.512 368.875 -307.329 378.268 -267.742 382.391C-236.907 385.607 -205.805 384.318 -174.912 386.924C-116.167 391.883 -58.1385 401.092 0.907532 401.701" stroke="white" stroke-opacity="0.04" stroke-miterlimit="10"/>
<path d="M-1479 392.761C-1439.1 393.116 -1399.22 393.682 -1359.31 394.178C-1323.23 394.66 -1283.48 401.814 -1249.34 384.36C-1209.52 364.015 -1176.37 327.845 -1138.77 302.584C-1107.49 281.545 -1078.86 277.309 -1043.56 283.231C-943.69 299.992 -858.641 378.778 -757.14 386.783C-696.811 391.557 -637.615 368.223 -579.309 352.78C-512.25 335 -453.066 338.613 -385.66 352.157C-346.57 360.034 -307.468 369.356 -267.95 373.479C-237.103 376.709 -206.002 375.477 -175.097 378.069C-116.294 382.986 -58.1037 392.025 0.942251 392.761" stroke="white" stroke-opacity="0.04" stroke-miterlimit="10"/>
<path d="M-1479 383.949C-1439.14 384.393 -1399.29 384.809 -1359.43 385.196C-1323.27 385.564 -1283.72 392.662 -1249.5 375.278C-1209.74 355.033 -1176.46 319.288 -1138.85 294.225C-1107.47 273.357 -1078.96 269.021 -1043.63 274.972C-943.863 291.76 -858.445 369.767 -756.979 377.914C-696.776 382.745 -637.488 359.496 -579.251 344.266C-512.193 326.698 -453.1 330.098 -385.718 343.642C-346.72 351.463 -307.699 360.643 -268.285 364.823C-237.427 368.053 -206.314 366.863 -175.398 369.427C-116.502 374.315 -58.1847 383.227 0.942251 384.006" stroke="white" stroke-opacity="0.04" stroke-miterlimit="10"/>
<path d="M-1479 375.449C-1439.2 375.945 -1399.4 376.171 -1359.59 376.44C-1323.38 376.695 -1283.99 383.694 -1249.75 366.353C-1210.03 346.278 -1176.62 310.986 -1138.99 286.164C-1107.59 265.451 -1079.12 261.059 -1043.83 266.995C-944.048 283.812 -858.271 360.969 -756.84 369.172C-696.719 374.032 -637.407 351.01 -579.239 335.992C-512.285 318.707 -453.216 321.98 -385.88 335.411C-346.986 343.161 -308.081 352.285 -268.771 356.393C-237.912 359.623 -206.777 358.49 -175.849 361.026C-116.884 365.857 -58.3696 374.627 0.872965 375.449" stroke="white" stroke-opacity="0.04" stroke-miterlimit="10"/>
<path d="M-1479 367.075C-1439.26 367.628 -1399.52 367.656 -1359.77 367.77C-1323.54 367.883 -1284.3 374.769 -1249.94 357.569C-1210.26 337.734 -1176.71 302.882 -1139.05 278.358C-1107.59 257.857 -1079.16 253.408 -1043.88 259.345C-944.094 276.119 -857.924 352.355 -756.504 360.601C-696.557 365.489 -637.152 342.721 -579.054 328.015C-512.181 311.014 -453.123 314.174 -385.973 327.477C-347.206 335.17 -308.428 344.181 -269.199 348.261C-238.317 351.491 -207.17 350.4 -176.23 352.894C-117.057 357.654 -58.4275 366.282 0.953824 367.061" stroke="white" stroke-opacity="0.04" stroke-miterlimit="10"/>
<path d="M-1479 358.915C-1439.33 359.482 -1399.66 359.297 -1359.99 359.255C-1323.74 359.255 -1284.66 365.97 -1250.28 348.927C-1210.65 329.29 -1176.95 295.005 -1139.29 270.806C-1107.77 250.547 -1079.36 246.098 -1044.1 251.992C-944.279 268.681 -857.693 343.954 -756.285 352.214C-696.395 357.031 -636.979 334.646 -578.927 320.195C-512.169 303.562 -453.158 306.565 -386.1 319.741C-315.816 333.555 -247.567 339.293 -176.762 344.889C-117.427 349.578 -58.6009 358.051 0.942251 358.915" stroke="white" stroke-opacity="0.04" stroke-miterlimit="10"/>
<path d="M-1479 350.953C-1439.41 351.52 -1399.84 351.109 -1360.24 350.868C-1323.99 350.655 -1285.09 357.272 -1250.64 340.455C-1211.03 321.087 -1177.18 287.354 -1139.48 263.51C-1107.89 243.548 -1079.47 239.114 -1044.25 244.951C-944.383 261.513 -857.346 335.751 -755.926 343.982C-696.221 348.828 -636.84 326.797 -578.8 312.658C-512.204 296.422 -453.204 299.283 -386.331 312.318C-316.186 325.975 -248.052 331.685 -177.387 337.154C-117.867 341.772 -58.8091 350.074 0.907532 350.953" stroke="white" stroke-opacity="0.04" stroke-miterlimit="10"/>
<path d="M-1479 343.175C-1439.5 343.727 -1400.01 343.09 -1360.51 342.651C-1324.28 342.24 -1285.46 348.7 -1251.02 332.124C-1211.43 313.111 -1177.41 279.93 -1139.67 256.44C-1108.03 236.79 -1079.55 232.355 -1044.4 238.164C-944.464 254.556 -856.953 327.718 -755.51 335.921C-695.932 340.724 -636.54 319.146 -578.615 305.347C-512.193 289.536 -453.216 292.256 -386.551 305.135C-316.567 318.636 -248.549 324.289 -178.046 329.631C-118.306 334.164 -58.9594 342.282 0.907532 343.161" stroke="white" stroke-opacity="0.04" stroke-miterlimit="10"/>
<path d="M-1479 335.609C-1439.6 336.133 -1400.22 335.241 -1360.82 334.575C-1324.62 333.98 -1285.91 340.242 -1251.45 323.963C-1211.92 305.262 -1177.73 272.719 -1139.96 249.711C-1108.26 230.4 -1079.74 226.065 -1044.65 231.746C-944.615 247.94 -856.606 319.954 -755.14 328.086C-695.678 332.832 -636.331 311.779 -578.418 298.334C-512.204 282.976 -453.228 285.583 -386.794 298.249C-316.972 311.595 -249.093 317.191 -178.763 322.334C-118.792 326.754 -59.2368 334.702 0.907532 335.581" stroke="white" stroke-opacity="0.04" stroke-miterlimit="10"/>
<path d="M-1479 328.228C-1439.69 328.709 -1400.38 327.548 -1361.14 326.669C-1324.97 325.848 -1286.38 331.926 -1251.93 315.959C-1212.41 297.654 -1178.06 265.734 -1140.24 243.179C-1108.49 224.251 -1079.89 219.987 -1044.86 225.569C-944.742 241.522 -856.213 312.36 -754.655 320.351C-695.32 325.012 -636.031 304.539 -578.141 291.491C-512.158 276.615 -453.193 279.066 -387.013 291.562C-317.377 304.724 -249.636 310.249 -179.479 315.279C-119.254 319.614 -59.4333 327.349 0.953824 328.228" stroke="white" stroke-opacity="0.04" stroke-miterlimit="10"/>
<path d="M-1479 321.045C-1439.82 321.47 -1400.67 320.039 -1361.49 318.92C-1325.38 317.871 -1286.89 323.737 -1252.42 308.124C-1212.93 290.23 -1178.43 258.962 -1140.55 236.903C-1108.73 218.372 -1080.03 214.235 -1045.09 219.675C-944.846 235.359 -855.762 304.964 -754.192 312.813C-694.973 317.361 -635.765 297.526 -577.921 284.903C-512.181 270.537 -453.216 272.861 -387.325 285.144C-317.874 298.107 -250.272 303.562 -180.369 308.436C-119.878 312.686 -59.757 320.18 0.884538 321.045" stroke="white" stroke-opacity="0.04" stroke-miterlimit="10"/>
<path d="M-1479 314.06C-1439.93 314.429 -1400.91 312.644 -1361.86 311.326C-1325.81 310.051 -1287.42 315.69 -1252.94 300.445C-1213.48 283.005 -1178.79 252.417 -1140.88 230.868C-1108.97 212.762 -1080.12 208.696 -1045.28 214.051C-944.938 229.437 -855.323 297.768 -753.683 305.475C-694.591 309.952 -635.476 290.74 -577.655 278.556C-512.204 264.729 -453.216 266.91 -387.638 278.995C-318.383 291.746 -250.943 297.102 -181.179 301.805C-120.41 305.9 -59.9768 313.239 0.942251 314.075" stroke="white" stroke-opacity="0.04" stroke-miterlimit="10"/>
<path d="M-1479 307.274C-1440.05 307.557 -1401.17 305.546 -1362.23 303.902C-1326.25 302.372 -1287.96 307.798 -1253.49 292.951C-1214.04 275.949 -1179.16 246.084 -1141.2 225.073C-1109.28 207.406 -1080.32 203.468 -1045.55 208.681C-945.066 223.756 -854.884 290.769 -753.163 298.306C-694.198 302.67 -635.175 284.138 -577.424 272.407C-512.262 259.147 -453.262 261.201 -388.019 273.059C-318.949 285.598 -251.671 290.84 -182.127 295.359C-121.058 299.34 -60.3005 306.452 0.907532 307.274" stroke="white" stroke-opacity="0.04" stroke-miterlimit="10"/>
<path d="M-1479 300.672C-1440.18 300.884 -1401.44 298.561 -1362.65 296.634C-1326.75 294.863 -1288.57 300.049 -1254.09 285.626C-1214.62 269.191 -1179.55 239.964 -1141.55 219.52C-1109.58 202.32 -1080.45 198.509 -1045.79 203.581C-945.204 218.301 -854.41 283.968 -752.597 291.307C-693.759 295.557 -634.851 277.791 -577.1 266.5C-512.25 253.749 -453.239 255.746 -388.331 267.364C-319.481 279.69 -252.376 284.804 -183.04 289.154C-121.659 292.993 -60.5664 299.893 0.942251 300.672" stroke="white" stroke-opacity="0.04" stroke-miterlimit="10"/>
<path d="M-1479 294.282C-1440.3 294.396 -1401.72 291.746 -1363.07 289.55C-1327.23 287.51 -1289.17 292.384 -1254.69 278.471C-1215.28 262.476 -1180.02 234.056 -1141.96 214.193C-1109.94 197.475 -1080.69 193.819 -1046.09 198.736C-945.308 213.087 -853.97 277.366 -752.053 284.507C-693.331 288.615 -634.551 271.628 -576.835 260.804C-512.308 248.719 -453.285 250.533 -388.736 261.909C-260.84 284.45 -128.446 292.71 0.895806 294.282" stroke="white" stroke-opacity="0.04" stroke-miterlimit="10"/>
<path d="M-1479 288.077C-1440.43 288.077 -1402.01 285.13 -1363.51 282.637C-1327.77 280.327 -1289.79 285.017 -1255.33 271.487C-1215.91 256.016 -1180.47 228.36 -1142.36 209.149C-1110.29 192.927 -1080.82 189.442 -1046.39 194.202C-945.447 208.143 -853.519 271.019 -751.498 277.947C-692.799 281.857 -634.169 265.664 -576.488 255.35C-512.297 243.86 -453.262 245.546 -389.094 256.681C-260.99 278.896 -128.584 286.603 0.907532 288.077" stroke="white" stroke-opacity="0.04" stroke-miterlimit="10"/>
<path d="M-1479 282.07C-1440.56 281.985 -1402.3 278.684 -1363.95 275.893C-1328.3 273.314 -1290.43 277.749 -1255.96 264.686C-1216.55 249.767 -1180.9 222.863 -1142.73 204.204C-1110.62 188.521 -1080.96 185.191 -1046.59 189.853C-945.459 203.397 -852.93 264.842 -750.793 271.529C-692.337 275.283 -633.834 259.897 -576.164 250.093C-512.331 239.227 -453.285 240.799 -389.487 251.68C-261.152 273.541 -128.712 280.695 0.942251 282.07" stroke="white" stroke-opacity="0.04" stroke-miterlimit="10"/>
<path d="M-1479 276.275C-1440.7 276.063 -1402.61 272.436 -1364.41 269.333C-1328.85 266.5 -1291.09 270.637 -1256.63 258.07C-1217.24 243.69 -1181.41 217.593 -1143.18 199.558C-1110.99 184.384 -1081.14 181.239 -1046.89 185.602C-945.586 198.722 -852.456 258.707 -750.18 265.154C-691.828 268.823 -633.406 254.287 -575.829 244.993C-512.354 234.764 -453.274 236.223 -389.904 246.835C-261.383 268.398 -128.862 274.986 0.907532 276.275" stroke="white" stroke-opacity="0.04" stroke-miterlimit="10"/>
<path d="M-1479 270.608C-1440.85 270.282 -1402.92 266.358 -1364.87 262.901C-1329.4 259.727 -1291.76 263.666 -1257.35 251.567C-1217.88 237.824 -1181.86 212.521 -1143.57 195.109C-1111.34 180.488 -1081.27 177.512 -1047.18 181.777C-945.69 194.443 -851.959 252.955 -749.544 259.146C-691.319 262.66 -633.059 248.988 -575.493 240.233C-512.435 230.627 -453.332 231.987 -390.32 242.273C-261.545 263.524 -129.024 269.475 0.907532 270.608" stroke="white" stroke-opacity="0.04" stroke-miterlimit="10"/>
<path d="M-1479 265.253C-1440.96 264.799 -1403.24 260.478 -1365.35 256.752C-1329.96 253.281 -1292.44 256.951 -1257.99 245.418C-1218.61 232.171 -1182.39 207.676 -1144.04 190.915C-1111.82 176.847 -1081.53 174.042 -1047.51 178.164C-945.771 190.377 -851.484 247.402 -748.92 253.338C-690.787 256.639 -632.678 243.817 -575.146 235.614C-512.435 226.688 -453.366 227.907 -390.748 238.023C-261.822 258.707 -129.174 264.176 0.907532 265.253" stroke="white" stroke-opacity="0.04" stroke-miterlimit="10"/>
<path d="M-1479 260.025C-1441.1 259.458 -1403.55 254.797 -1365.83 250.759C-1330.51 246.991 -1293.14 250.405 -1258.68 239.326C-1219.3 226.66 -1182.9 202.972 -1144.48 186.906C-1112.23 173.39 -1081.73 170.769 -1047.82 174.679C-945.91 186.453 -850.976 241.961 -748.261 247.628C-690.29 250.83 -632.296 238.887 -574.834 231.222C-512.47 222.92 -453.436 224.138 -391.222 233.872C-262.042 254.174 -129.336 259.076 0.907532 260.025" stroke="white" stroke-opacity="0.04" stroke-miterlimit="10"/>
<path d="M-1479 255.024C-1441.24 254.315 -1403.85 249.357 -1366.32 244.965C-1331.01 240.856 -1293.83 244.03 -1259.33 233.446C-1219.94 221.361 -1183.35 198.509 -1144.86 183.066C-1112.57 170.103 -1081.86 167.68 -1048.06 171.421C-946.002 182.769 -850.444 236.719 -747.567 242.117C-689.758 245.149 -631.857 234.098 -574.441 226.986C-513.613 219.371 -452.272 220.35 -391.626 229.905C-262.273 249.824 -129.498 254.174 0.907532 255.024" stroke="white" stroke-opacity="0.04" stroke-miterlimit="10"/>
<path d="M-1479 250.179C-1441.37 249.357 -1404.2 244.001 -1366.85 239.326C-1331.66 234.92 -1294.62 237.909 -1260.14 227.779C-1220.74 216.261 -1183.97 194.245 -1145.42 179.454C-1113.05 167.057 -1082.17 164.818 -1048.46 168.389C-946.002 179.213 -849.935 231.704 -746.897 236.818C-689.169 239.652 -631.441 229.522 -574.094 222.977C-513.504 215.909 -452.465 216.983 -392.066 226.179C-262.493 245.659 -129.613 249.456 0.942251 250.179" stroke="white" stroke-opacity="0.04" stroke-miterlimit="10"/>
<path d="M-1479 245.56C-1441.51 244.596 -1404.52 238.887 -1367.29 233.886C-1332.15 229.168 -1295.31 231.874 -1260.79 222.296C-1221.39 211.359 -1184.43 190.178 -1145.82 176.053C-1113.45 164.209 -1082.33 162.155 -1048.71 165.555C-946.152 175.912 -849.461 226.873 -746.249 231.732C-688.637 234.438 -631.048 225.144 -573.759 219.165C-513.413 212.645 -452.678 213.813 -392.528 222.651C-262.701 241.692 -129.81 244.95 0.907532 245.56" stroke="white" stroke-opacity="0.04" stroke-miterlimit="10"/>
<path d="M-1479 241.125C-1441.63 240.034 -1404.84 234.041 -1367.78 228.658C-1332.69 223.614 -1296.09 226.093 -1261.49 217.012C-1222.09 206.655 -1184.95 186.296 -1146.28 172.837C-1113.9 161.503 -1082.54 159.69 -1049.02 162.92C-946.245 172.837 -848.999 222.254 -745.59 226.83C-688.105 229.38 -630.643 220.965 -573.412 215.496C-512.539 209.744 -453.667 210.566 -392.991 219.25C-262.955 237.909 -129.972 240.629 0.907532 241.125" stroke="white" stroke-opacity="0.04" stroke-miterlimit="10"/>
<path d="M-1479 236.889C-1441.76 235.671 -1405.17 229.267 -1368.26 223.628C-1333.21 218.259 -1296.77 220.511 -1262.19 211.926C-1222.78 202.136 -1185.46 182.627 -1146.71 169.805C-1114.34 159.08 -1082.75 157.395 -1049.32 160.469C-946.326 169.89 -848.502 217.819 -744.931 222.126C-626.897 227.043 -511.638 199.685 -393.349 216.162C-263.14 234.296 -130.087 236.507 0.988402 236.889" stroke="white" stroke-opacity="0.04" stroke-miterlimit="10"/>
<path d="M-1479 232.851C-1441.89 231.52 -1405.48 224.762 -1368.74 218.797C-1333.71 213.13 -1297.51 215.142 -1262.89 207.038C-1223.46 197.815 -1185.97 179.142 -1147.15 166.972C-1114.71 156.8 -1082.97 155.298 -1049.62 158.188C-946.395 167.17 -848.016 213.583 -744.261 217.692C-626.735 222.268 -511.499 197.305 -393.858 213.258C-263.418 230.939 -130.284 232.582 0.907532 232.851" stroke="white" stroke-opacity="0.04" stroke-miterlimit="10"/>
<path d="M-1479 229.012C-1442 227.595 -1405.79 220.511 -1369.16 214.178C-1334.17 208.157 -1298.21 209.928 -1263.52 202.363C-1224.1 193.692 -1186.43 175.841 -1147.56 164.351C-1115.08 154.717 -1083.17 153.385 -1049.87 156.119C-946.43 164.62 -847.542 209.574 -743.578 213.357C-626.55 217.607 -511.302 195.024 -394.251 210.523C-263.603 227.737 -130.446 228.941 0.942251 229.111" stroke="white" stroke-opacity="0.04" stroke-miterlimit="10"/>
<path d="M-1479 225.371C-1442.12 223.798 -1406.1 216.36 -1369.68 209.786C-1334.69 203.453 -1298.98 205.083 -1264.25 197.928C-1224.79 189.782 -1186.95 172.766 -1148.02 161.871C-1115.47 152.747 -1083.4 151.6 -1050.16 154.164C-946.499 162.254 -847.068 205.706 -742.943 209.234C-626.388 213.201 -511.175 192.927 -394.679 207.817C-263.857 224.563 -130.596 225.272 0.907532 225.371" stroke="white" stroke-opacity="0.04" stroke-miterlimit="10"/>
<path d="M-1479 221.914C-1442.2 220.228 -1406.37 212.521 -1370.1 205.565C-1335.11 198.892 -1299.67 200.337 -1264.89 193.635C-1191.29 179.468 -1126.28 146.811 -1050.46 152.408C-946.569 160.101 -846.571 202.051 -742.307 205.352C-626.226 209.007 -511.071 191.014 -395.083 205.352C-264.077 221.659 -130.746 221.956 0.907532 221.914" stroke="white" stroke-opacity="0.04" stroke-miterlimit="10"/>
<path d="M-1479 218.67C-1442.34 216.885 -1406.7 208.752 -1370.59 201.584C-1335.6 194.585 -1300.42 195.846 -1265.56 189.584C-1191.96 176.365 -1126.27 145.536 -1050.73 150.807C-946.673 158.061 -846.189 198.608 -741.694 201.669C-626.076 205.055 -510.944 189.258 -395.488 203.085C-264.285 218.868 -130.885 218.67 0.942251 218.67" stroke="white" stroke-opacity="0.04" stroke-miterlimit="10"/>
<path d="M-1479 215.609C-1442.44 213.725 -1406.98 205.324 -1371.01 197.801C-1336.03 190.49 -1301.11 191.595 -1266.18 185.758C-1192.66 173.461 -1126.28 144.403 -1051.04 149.347C-946.719 156.205 -845.819 195.35 -741.185 198.183C-625.972 201.314 -510.944 187.671 -395.95 201.017C-264.574 216.318 -131.116 215.779 0.861392 215.567" stroke="white" stroke-opacity="0.04" stroke-miterlimit="10"/>
<path d="M-1479 212.747C-1442.53 210.778 -1407.32 202.065 -1371.48 194.329C-1336.48 186.707 -1301.82 187.628 -1266.82 182.202C-1193.29 170.74 -1126.28 143.383 -1051.21 148.044C-946.742 154.533 -845.415 192.275 -740.526 194.924C-625.729 197.758 -510.794 186.24 -396.24 199.175C-264.678 213.937 -131.174 213.045 0.907532 212.747" stroke="white" stroke-opacity="0.04" stroke-miterlimit="10"/>
<path d="M-1479 210.084C-1442.63 208.03 -1407.54 199.019 -1371.85 190.929C-1336.84 182.995 -1302.47 183.846 -1267.37 178.731C-1193.94 168.19 -1126.32 142.476 -1051.56 146.868C-946.8 153.017 -845.01 189.413 -739.971 191.864C-625.51 194.542 -510.736 184.951 -396.586 197.376C-264.851 211.742 -131.29 210.452 0.953824 210.126" stroke="white" stroke-opacity="0.04" stroke-miterlimit="10"/>
<path d="M-1479 207.619C-1442.71 205.494 -1407.79 196.186 -1372.23 187.784C-1337.22 179.553 -1303.06 180.176 -1267.93 175.515C-1194.51 165.768 -1126.37 141.683 -1051.77 145.834C-946.846 151.6 -844.652 186.722 -739.439 189.017C-625.382 191.496 -510.701 183.803 -396.933 195.775C-265.013 209.687 -131.429 208.044 0.907532 207.619" stroke="white" stroke-opacity="0.04" stroke-miterlimit="10"/>
<path d="M-1479 205.352C-1442.78 203.17 -1408.03 193.579 -1372.63 184.951C-1337.61 176.45 -1303.69 176.918 -1268.48 172.596C-1195.09 163.614 -1126.37 141.017 -1052.01 144.927C-946.892 150.452 -844.258 184.186 -738.931 186.382C-625.221 188.691 -510.666 182.783 -397.257 194.33C-265.187 207.761 -131.556 205.82 0.942251 205.352" stroke="white" stroke-opacity="0.04" stroke-miterlimit="10"/>
<path d="M-1479 203.284C-1442.81 201.045 -1408.23 191.269 -1372.91 182.301C-1337.89 173.503 -1304.17 173.801 -1268.85 169.876C-1195.62 161.588 -1126.44 140.422 -1052.23 144.134C-946.95 149.39 -843.992 181.947 -738.457 183.973C-625.047 186.141 -510.69 181.905 -397.546 193.026C-265.337 206.004 -131.625 203.779 0.942251 203.284" stroke="white" stroke-opacity="0.04" stroke-miterlimit="10"/>
<path d="M-1479 201.399C-1442.87 199.133 -1408.47 189.017 -1373.23 179.935C-1338.21 170.854 -1304.69 171.109 -1269.38 167.411C-1196.13 159.732 -1126.49 139.926 -1052.45 143.454C-946.996 148.483 -843.703 179.85 -737.971 181.706C-491.405 186.169 -245.671 202.32 0.988402 201.343" stroke="white" stroke-opacity="0.04" stroke-miterlimit="10"/>
<path d="M-1479 199.77C-1442.92 197.432 -1408.65 187.019 -1373.53 177.725C-1338.42 168.431 -1305.17 168.516 -1269.81 165.101C-1196.59 158.018 -1126.55 139.515 -1052.65 142.901C-947.031 147.732 -843.38 177.937 -737.613 179.737C-624.712 181.692 -510.666 180.516 -398.066 190.802C-265.58 202.929 -131.891 200.251 0.907532 199.77" stroke="white" stroke-opacity="0.04" stroke-miterlimit="10"/>
<path d="M-1479 198.24C-1442.99 195.945 -1408.87 185.361 -1373.79 175.784C-1338.71 166.207 -1305.57 166.235 -1270.18 163.033C-1197 156.502 -1126.6 139.146 -1052.82 142.405C-947.066 147.08 -843.172 176.195 -737.185 177.98C-624.585 179.935 -510.701 180.162 -398.286 189.952C-265.661 201.512 -131.995 198.764 0.942251 198.24" stroke="white" stroke-opacity="0.04" stroke-miterlimit="10"/>
<path d="M-1479 196.937C-1443.02 194.656 -1409.03 183.846 -1374.09 174.084C-1339.15 164.323 -1306.01 164.167 -1270.59 161.248C-1197.41 155.17 -1126.68 138.849 -1053.01 142.065C-947.124 146.627 -842.964 174.651 -736.896 176.464C-624.388 178.334 -510.713 179.737 -398.471 189.215C-265.742 200.393 -132.053 197.461 0.907532 196.937" stroke="white" stroke-opacity="0.04" stroke-miterlimit="10"/>
<path d="M-1479 195.86C-1443.04 193.593 -1409.18 182.599 -1374.31 172.639C-1339.44 162.679 -1306.34 162.481 -1270.89 159.704C-1197.78 154.037 -1126.77 138.693 -1053.2 141.796C-947.204 146.273 -842.778 173.376 -736.641 175.146C-624.284 177.017 -510.77 179.397 -398.667 188.577C-265.846 199.43 -132.192 196.327 0.907532 195.86" stroke="white" stroke-opacity="0.04" stroke-miterlimit="10"/>
<path d="M-1479 194.967C-1443.02 192.686 -1409.27 181.565 -1374.46 171.435C-1339.65 161.305 -1306.58 161.007 -1271.12 158.386C-1198.05 153.017 -1126.78 138.523 -1053.31 141.683C-947.158 146.046 -842.605 172.228 -736.352 174.042C-624.122 175.968 -510.759 179.213 -398.748 188.082C-265.846 198.608 -132.203 195.392 0.953824 194.967" stroke="white" stroke-opacity="0.04" stroke-miterlimit="10"/>
<path d="M-1479 194.273C-1443.05 192.105 -1409.41 180.771 -1374.65 170.486C-1339.9 160.2 -1306.73 159.817 -1271.34 157.267C-1198.3 152.124 -1126.82 138.41 -1053.42 141.499C-947.251 145.947 -842.466 171.251 -736.144 173.163C-623.995 175.161 -510.782 179.085 -398.864 187.713C-265.904 197.957 -132.273 194.613 0.942251 194.273" stroke="white" stroke-opacity="0.04" stroke-miterlimit="10"/>
<path d="M-1479 193.763C-1443.05 191.68 -1409.49 180.205 -1374.77 169.791C-1340.05 159.378 -1306.97 158.911 -1271.54 156.46C-1198.51 151.43 -1126.83 138.339 -1053.53 141.456C-947.297 145.933 -842.362 170.514 -735.982 172.526C-623.833 174.622 -510.805 179.043 -398.922 187.444C-265.88 197.447 -132.307 194.018 0.942251 193.763" stroke="white" stroke-opacity="0.04" stroke-miterlimit="10"/>
<path d="M-1479 193.465C-1443.03 191.468 -1409.56 179.879 -1374.86 169.38C-1340.17 158.882 -1307.06 158.344 -1271.64 155.921C-1198.68 150.906 -1126.83 138.297 -1053.61 141.484C-947.343 146.117 -842.281 170.018 -735.878 172.101C-623.798 174.367 -510.817 179.071 -398.933 187.302C-265.869 197.092 -132.342 193.607 0.942251 193.465" stroke="white" stroke-opacity="0.04" stroke-miterlimit="10"/>
<path d="M-1479 193.352C-1443.01 191.482 -1409.63 179.779 -1374.94 169.154C-1340.26 158.528 -1307.11 157.975 -1271.73 155.538C-1198.89 150.537 -1126.87 138.268 -1053.75 141.569C-947.459 146.386 -842.304 169.564 -735.89 171.902C-623.741 174.367 -510.886 179.184 -398.991 187.26C-265.823 196.936 -132.354 193.366 0.907532 193.352" stroke="white" stroke-opacity="0.04" stroke-miterlimit="10"/>
</g>
<path d="M1 550.413C1201.26 550.413 2401.52 550.413 3601.77 550.413" stroke="white" stroke-miterlimit="10"/>
<path d="M1 536.683C1201.24 536.503 2401.51 537.569 3601.77 536.683" stroke="white" stroke-miterlimit="10"/>
<path d="M1 523.133C1201.16 522.857 2401.48 524.614 3601.77 523.133" stroke="white" stroke-miterlimit="10"/>
<path d="M1 509.792C330.415 509.695 659.267 505.197 988.4 504.74C1258.66 504.366 1528.74 510.871 1799.02 509.902C2399.96 507.771 3000.7 510.691 3601.66 509.792" stroke="white" stroke-miterlimit="10"/>
<path d="M1 496.629C174.231 496.629 348.278 499.397 521.424 497.072C678.339 495.01 833.679 488.381 990.847 488.353C1259.95 488.353 1528.63 497.529 1797.79 496.657C2399.2 494.65 3000.3 497.626 3601.77 496.657" stroke="white" stroke-miterlimit="10"/>
<path d="M1 483.661C174.456 483.661 349.6 487.523 522.887 483.883C680.731 480.575 835.142 471.219 993.604 471.524C1261.36 472.022 1528.35 484.174 1796.15 483.482C2071.84 482.776 2346.68 475.468 2622.31 479.33C2948.4 483.869 3275.51 484.201 3601.77 483.689" stroke="white" stroke-miterlimit="10"/>
<path d="M1 470.873C174.625 470.873 351.288 475.98 524.603 470.762C683.684 465.988 836.717 453.573 996.839 454.265C1263.04 455.483 1528.07 470.776 1794.41 470.43C2071.39 470.07 2347.05 459.884 2624.28 464.894C2949.61 470.707 3276.38 471.344 3601.97 470.901" stroke="white" stroke-miterlimit="10"/>
<path d="M1 458.306C174.737 458.306 353.341 464.77 526.544 457.766C608.828 454.445 689.704 445.31 771.285 440.259C847.238 435.525 923.811 436.19 1000.1 436.785C1264.53 438.847 1527.42 457.545 1792.19 457.545C2070.69 457.656 2347.1 444.231 2625.99 450.403C2950.43 457.559 3276.86 458.597 3601.66 458.251" stroke="white" stroke-miterlimit="10"/>
<path d="M1 445.961C174.737 445.961 355.789 453.85 528.682 444.923C611.725 440.632 692.602 429.809 774.998 423.526C850.952 417.741 927.412 418.197 1003.98 419.083C1266.9 422.059 1527.08 444.231 1790.13 444.881C2070.6 445.573 2347.44 428.633 2628.44 436.065C2951.95 444.618 3277.93 446.113 3601.77 445.919" stroke="white" stroke-miterlimit="10"/>
<path d="M1 433.712C174.625 433.712 358.602 443.082 530.961 432.121C614.791 426.778 695.837 414.197 778.824 406.641C854.777 399.721 931.041 399.956 1007.95 401.105C1268.98 405.104 1526.38 430.999 1787.77 432.273C2070.26 433.657 2347.58 412.896 2630.72 421.685C2953.1 431.65 3278.69 433.712 3601.77 433.671" stroke="white" stroke-miterlimit="10"/>
<path d="M1 421.713C174.4 421.713 361.724 432.55 533.38 419.498C618.083 413.049 699.213 398.669 782.818 389.784C858.772 381.701 934.726 381.646 1012.11 383.182C1271.26 388.317 1525.67 417.962 1785.32 419.927C1923.56 420.966 2060.22 413.478 2197.7 407.596C2343.61 401.354 2487.22 402.309 2633.19 407.485C2954.45 418.848 3279.62 421.561 3601.77 421.713" stroke="white" stroke-miterlimit="10"/>
<path d="M1 409.893C93.3261 409.893 185.624 410.281 277.95 410.572C362.934 410.848 451.772 414.502 535.856 407.029C621.487 399.43 702.701 383.223 786.953 372.968C862.907 363.695 938.411 363.28 1016.42 365.217C1273.68 371.529 1524.86 405.022 1782.82 407.707C1921.76 409.091 2058.98 400.247 2196.94 393.534C2344.32 386.365 2488.29 387.472 2635.78 393.354C2955.83 406.115 3280.55 409.547 3601.75 409.893" stroke="white" stroke-miterlimit="10"/>
<path d="M1 398.268C93.8325 398.268 186.665 398.711 279.497 399.043C364.819 399.347 454.332 403.305 538.5 394.738C625.031 385.936 706.33 367.902 791.229 356.249C867.465 345.786 942.153 345.011 1020.86 347.336C1276.27 354.851 1524.04 392.233 1780.4 395.652C1920.07 397.52 2057.91 387.182 2196.32 379.625C2345.41 371.487 2489.47 372.774 2638.6 379.376C2957.4 393.493 3281.67 397.714 3601.92 398.268" stroke="white" stroke-miterlimit="10"/>
<path d="M1 386.836C94.2826 386.919 187.565 387.348 280.876 387.707C366.563 388.053 456.751 392.289 540.976 382.642C628.491 372.608 709.762 352.761 795.365 339.738C871.769 328.084 945.669 326.908 1025.17 329.648C1278.77 338.395 1523.09 379.666 1777.7 383.846C1918.05 386.157 2056.59 374.338 2195.42 365.937C2345.98 356.83 2490.34 358.297 2641.1 365.632C2958.7 381.05 3282.49 386.102 3601.77 386.877" stroke="white" stroke-miterlimit="10"/>
<path d="M1 375.598C94.7608 375.694 188.55 376.165 282.311 376.566C368.42 376.94 459.227 381.452 543.507 370.74C632.008 359.488 713.335 337.842 799.5 323.379C876.073 310.535 949.129 308.957 1029.47 312.127C1281.33 322.064 1521.76 367.224 1775.08 372.151C1916.13 374.919 2055.41 361.605 2194.58 352.374C2346.79 342.284 2491.22 343.959 2643.69 352C2960.02 368.677 3283.39 374.615 3601.72 375.598" stroke="white" stroke-miterlimit="10"/>
<path d="M1 364.553C95.239 364.664 189.478 365.176 283.745 365.619C370.304 366.02 461.674 370.795 545.983 359.045C635.468 346.588 716.795 323.185 803.691 307.338C880.377 293.359 952.589 291.338 1033.8 294.882C1284.03 305.954 1520.78 354.989 1772.64 360.622C1914.42 363.861 2054.57 349.08 2193.98 339.087C2347.83 328.015 2492.17 329.897 2646.42 338.644C2961.48 356.526 3284.48 363.363 3601.86 364.553" stroke="white" stroke-miterlimit="10"/>
<path d="M1 353.702C95.6891 353.813 190.406 354.367 285.124 354.851C372.105 355.294 464.037 360.318 548.402 347.585C638.815 333.925 720.002 308.832 807.658 291.657C884.484 276.557 955.88 274.121 1037.94 278.163C1286.65 290.383 1519.6 343.211 1770.22 349.453C1912.53 353.038 2053.41 336.873 2193.17 326.063C2348.65 314.036 2492.93 316.126 2648.89 325.565C2962.75 344.568 3285.38 352.318 3601.86 353.702" stroke="white" stroke-miterlimit="10"/>
<path d="M1 343.031C96.1392 343.17 191.278 343.765 286.418 344.277C373.849 344.748 466.288 350.021 550.653 336.36C642.05 321.565 723.321 294.84 811.456 276.377C888.366 260.239 959.003 257.388 1041.91 261.831C1289.21 275.09 1518.36 331.516 1767.88 338.436C1910.82 342.395 2052.49 324.887 2192.49 313.33C2349.49 300.376 2493.66 302.687 2651.17 312.777C2963.85 332.817 3286.17 341.495 3601.77 343.031" stroke="white" stroke-miterlimit="10"/>
<path d="M1 332.568C96.6456 332.707 192.094 333.33 287.655 333.952C375.452 334.451 468.397 339.959 552.762 325.468C645.201 309.524 726.387 281.263 815.113 261.554C892.051 244.462 962.041 241.223 1045.79 246.04C1291.85 260.24 1517.29 320.195 1765.94 327.697C1909.41 331.987 2051.87 313.22 2192.1 300.971C2350.53 287.131 2494.56 289.664 2653.45 300.376C2821.98 311.739 2986.94 316.583 3156.46 320.998C3305.08 324.887 3452.91 331.821 3601.86 332.624" stroke="white" stroke-miterlimit="10"/>
<path d="M1 322.285C96.9269 322.437 192.854 323.102 288.781 323.669C376.915 324.195 470.367 329.939 554.704 314.687C647.874 297.829 729.116 268.101 818.291 247.258C895.202 229.265 964.714 225.695 1048.97 230.871C1293.96 245.874 1515.74 309.178 1763.49 317.053C1907.55 321.635 2050.66 301.732 2191.09 288.833C2350.84 274.177 2494.73 276.903 2655.25 288.211C2824.57 300.127 2990.01 305.262 3160.37 309.995C3307.64 314.147 3454 321.441 3601.66 322.271" stroke="white" stroke-miterlimit="10"/>
<path d="M1 312.196C97.2645 312.362 193.529 313.054 289.821 313.663C378.153 314.216 472.167 320.181 556.391 304.293C650.405 286.55 731.451 255.465 821.217 233.57C898.071 214.83 967.245 210.955 1052.17 216.408C1296.29 232.075 1514.62 298.549 1761.89 306.757C1906.51 311.545 2050.15 290.647 2190.83 277.166C2351.72 261.735 2495.52 264.71 2657.13 276.502C2827.16 288.958 2993.02 294.3 3164.17 299.338C3310.22 303.629 3455.3 311.338 3601.77 312.196" stroke="white" stroke-miterlimit="10"/>
<path d="M1 302.3C97.5739 302.466 194.12 303.186 290.75 303.823C379.222 304.39 473.799 310.59 557.995 294.134C652.768 275.63 733.673 243.286 823.918 220.477C900.659 201.101 969.665 196.949 1055.07 202.665C1298.52 218.83 1513.61 288.252 1760.46 296.639C1905.47 301.622 2049.59 279.879 2190.5 265.873C2352.31 249.777 2496.08 252.918 2658.71 265.208C2829.38 278.107 2995.61 283.616 3167.46 288.917C3312.48 293.401 3456.37 301.442 3601.86 302.3" stroke="white" stroke-miterlimit="10"/>
<path d="M1 292.598C97.799 292.764 194.626 293.511 291.425 294.162C379.841 294.757 475.121 301.165 558.951 284.377C654.428 265.264 735.192 231.784 825.831 208.173C902.431 188.243 971.437 184.036 1057.18 189.849C1300.15 206.318 1512.26 278.426 1758.97 286.868C1904.71 291.851 2048.91 269.499 2190.1 255.036C2352.62 238.358 2496.42 241.68 2659.89 254.372C2831.15 267.672 2997.69 273.291 3170.16 278.813C3314.3 283.436 3457.1 291.795 3601.86 292.653" stroke="white" stroke-miterlimit="10"/>
<path d="M1 283.09C97.9959 283.242 195.104 284.017 291.988 284.695C380.207 285.29 476.218 291.92 559.739 274.91C655.863 255.326 736.43 220.823 827.434 196.602C903.81 176.271 973.068 172.05 1058.95 177.918C1301.72 194.526 1511.22 269.014 1757.92 277.318C1904.21 282.245 2048.41 259.492 2189.93 244.614C2352.87 227.466 2496.79 230.954 2660.65 243.963C2755.48 251.493 2850.37 260.336 2946.21 264.378C3021.26 267.547 3096.96 266.454 3172.19 268.945C3315.65 273.678 3457.74 282.301 3601.77 283.09" stroke="white" stroke-miterlimit="10"/>
<path d="M1 273.761C98.1365 273.914 195.245 274.716 292.381 275.395C380.207 276.004 477.034 282.854 560.161 265.776C656.847 245.929 737.19 210.554 828.475 185.863C904.597 165.269 974.306 161.172 1060.19 166.985C1302.96 183.427 1510.29 260.06 1757.22 268.018C1904.09 272.765 2047.96 249.873 2189.85 234.663C2353.01 217.183 2497.1 220.823 2661.1 234.068C2756.3 241.749 2851.55 250.815 2947.78 254.828C3022.81 257.998 3098.45 256.78 3173.62 259.312C3316.67 264.143 3458.17 273 3601.77 273.692" stroke="white" stroke-miterlimit="10"/>
<path d="M1 264.655C98.1928 264.793 195.357 265.596 292.55 266.288C379.757 266.911 477.54 273.955 560.217 256.987C657.41 236.975 737.527 200.99 828.981 176.078C904.935 155.318 975.263 151.525 1060.89 157.2C1303.89 173.268 1509.67 251.548 1756.94 259.077C1904.35 263.561 2047.7 240.767 2189.99 225.349C2352.9 207.675 2497.38 211.412 2661.24 224.795C2756.63 232.587 2852.08 241.819 2948.57 245.832C3023.6 248.96 3099.24 247.631 3174.41 250.192C3317.23 255.05 3458.53 264.032 3602 264.683" stroke="white" stroke-miterlimit="10"/>
<path d="M1 255.7C98.1365 255.963 195.273 256.655 292.41 257.264C380.01 257.818 477.174 264.835 560.077 247.811C657.072 227.881 737.302 192.174 828.897 167.331C904.851 146.695 974.869 142.667 1060.67 148.411C1303.52 164.659 1509.89 242.317 1757 250.012C1904.09 254.607 2047.82 231.77 2189.88 216.477C2353.04 198.942 2497.18 202.54 2661.18 215.882C2756.46 223.632 2851.8 232.808 2948.12 236.836C3023.15 239.978 3098.82 238.718 3173.99 241.265C3316.92 246.109 3458.11 255.105 3601.77 255.7" stroke="white" stroke-miterlimit="10"/>
<path d="M1 246.967C98.0803 247.313 195.104 247.866 292.213 248.351C380.01 248.821 476.724 255.811 559.795 238.76C656.679 218.885 737.33 183.551 828.812 158.874C904.935 138.322 974.588 134.183 1060.47 139.969C1303.47 156.341 1510.4 233.306 1757.36 241.126C1904.15 245.79 2048.18 222.996 2190.05 207.91C2353.21 190.54 2497.21 194.07 2661.21 207.301C2756.32 214.996 2851.46 224.103 2947.62 228.13C3022.67 231.286 3098.34 230.082 3173.54 232.614C3316.61 237.417 3458.19 246.247 3601.86 246.967" stroke="white" stroke-miterlimit="10"/>
<path d="M1 238.358C97.9771 238.792 194.954 239.198 291.931 239.576C379.897 239.936 476.133 246.87 559.401 229.888C656.144 210.11 737.105 175.192 828.616 150.708C904.963 130.322 974.334 126.087 1060.3 131.9C1303.05 148.3 1510.88 224.504 1757.76 232.462C1904.23 237.182 2048.49 214.47 2190.19 199.592C2353.35 182.43 2497.12 185.752 2661.07 198.983C2755.96 206.623 2850.9 215.591 2946.8 219.674C3021.88 222.83 3097.58 221.667 3172.8 224.172C3316.1 228.947 3458 237.652 3601.86 238.414" stroke="white" stroke-miterlimit="10"/>
<path d="M1 230.054C97.8271 230.539 194.682 230.76 291.538 231.023C379.644 231.272 475.486 238.109 558.783 221.169C655.441 201.557 736.711 167.082 828.278 142.834C904.682 122.599 973.941 118.309 1059.82 124.108C1302.6 140.536 1511.3 215.91 1758.09 223.923C1904.38 228.67 2048.69 206.18 2190.21 191.51C2353.12 174.625 2496.84 177.822 2660.68 190.942C2755.31 198.513 2849.97 207.426 2945.62 211.439C3020.7 214.595 3096.46 213.488 3171.71 215.965C3315.18 220.685 3457.55 229.252 3601.69 230.054" stroke="white" stroke-miterlimit="10"/>
<path d="M1 221.875C97.6864 222.414 194.373 222.442 291.087 222.553C379.25 222.664 474.727 229.39 558.332 212.588C654.878 193.212 736.515 159.165 828.137 135.208C904.682 115.181 973.856 110.835 1059.68 116.634C1302.48 133.021 1512.14 207.495 1758.91 215.55C1904.77 220.325 2049.31 198.083 2190.67 183.717C2353.38 167.109 2497.07 170.195 2660.45 183.191C2754.78 190.707 2849.13 199.509 2944.58 203.495C3019.72 206.65 3095.5 205.585 3170.78 208.021C3314.75 212.671 3457.41 221.1 3601.89 221.861" stroke="white" stroke-miterlimit="10"/>
<path d="M1 213.903C97.5176 214.456 194.035 214.276 290.553 214.235C378.772 214.235 473.855 220.795 557.489 204.145C653.922 184.963 735.924 151.47 827.547 127.831C904.232 108.039 973.378 103.694 1059.15 109.451C1302.03 125.755 1512.71 199.287 1759.44 207.356C1905.16 212.062 2049.73 190.194 2190.97 176.078C2353.4 159.829 2496.98 162.763 2660.14 175.635C2831.15 189.129 2997.21 194.734 3169.48 200.201C3313.85 204.782 3456.98 213.058 3601.86 213.903" stroke="white" stroke-miterlimit="10"/>
<path d="M1 206.125C97.3207 206.678 193.613 206.277 289.962 206.042C378.153 205.834 472.814 212.297 556.616 195.869C652.993 176.95 735.361 143.996 827.096 120.703C903.95 101.203 973.097 96.8705 1058.78 102.573C1301.78 118.752 1513.55 191.274 1760.32 199.315C1905.58 204.049 2050.07 182.527 2191.28 168.715C2353.32 152.854 2496.87 155.65 2659.58 168.383C2830.25 181.724 2996.03 187.302 3167.97 192.644C3312.78 197.156 3456.48 205.267 3601.77 206.125" stroke="white" stroke-miterlimit="10"/>
<path d="M1 198.526C97.0957 199.066 193.191 198.443 289.287 198.014C377.45 197.613 471.914 203.924 555.688 187.731C652.037 169.158 734.798 136.744 826.618 113.797C903.613 94.6006 972.9 90.2686 1058.42 95.9431C1301.58 111.956 1514.51 183.427 1761.33 191.44C1906.29 196.132 2050.8 175.053 2191.73 161.573C2353.35 146.128 2496.84 148.785 2659.05 161.366C2829.32 174.555 2994.82 180.077 3166.36 185.295C3311.72 189.724 3456.11 197.654 3601.77 198.513" stroke="white" stroke-miterlimit="10"/>
<path d="M1 191.136C96.8706 191.648 192.685 190.776 288.556 190.125C376.634 189.544 470.817 195.661 554.647 179.759C650.827 161.49 734.011 129.699 825.915 107.223C903.05 88.3585 972.45 84.1235 1057.83 89.6734C1301.22 105.493 1515.35 175.842 1762.23 183.786C1906.91 188.423 2051.3 167.856 2192.21 154.722C2353.32 139.719 2496.81 142.266 2658.46 154.639C2828.34 167.676 2993.5 173.143 3164.62 178.167C3310.53 182.485 3455.44 190.25 3601.77 191.108" stroke="white" stroke-miterlimit="10"/>
<path d="M1 183.925C96.6456 184.395 192.291 183.261 287.768 182.402C375.762 181.6 469.663 187.537 553.494 171.939C649.646 154.058 733.223 122.876 825.24 100.842C902.488 82.3519 972.084 78.186 1057.32 83.639C1300.91 99.2231 1516.31 168.424 1763.41 176.23C1907.78 180.783 2052.04 160.784 2192.89 148.037C2353.43 133.505 2496.9 135.9 2657.92 148.107C2827.36 160.964 2992.18 166.362 3162.87 171.275C3309.41 175.51 3454.96 183.067 3601.89 183.925" stroke="white" stroke-miterlimit="10"/>
<path d="M1 176.908C96.3361 177.323 191.588 175.925 286.924 174.832C374.777 173.808 468.426 179.537 552.284 164.286C648.38 146.806 732.323 116.26 824.48 94.7112C901.897 76.6083 971.746 72.5669 1056.76 77.8816C1300.65 93.2026 1517.4 161.199 1764.54 168.867C1908.62 173.309 2052.68 153.933 2193.42 141.602C2353.37 127.568 2496.84 129.837 2657.16 141.837C2826.15 154.501 2990.63 159.829 3160.71 164.59C3307.89 168.742 3454.17 176.064 3601.72 176.908" stroke="white" stroke-miterlimit="10"/>
<path d="M1 170.085C96.0548 170.445 190.997 168.701 286.024 167.414C373.736 166.168 467.132 171.677 551.018 156.785C647.03 139.747 731.451 109.866 823.693 88.8155C901.334 71.1277 971.521 67.1556 1056.28 72.3872C1300.43 87.4176 1518.47 154.169 1765.77 161.698C1909.55 166.071 2053.39 147.304 2194.07 135.401C2353.32 121.893 2496.84 124.025 2656.4 135.831C2824.91 148.287 2989 153.518 3158.74 158.113C3306.6 162.113 3453.64 169.282 3601.86 170.099" stroke="white" stroke-miterlimit="10"/>
<path d="M1 163.455C95.7735 163.732 190.378 161.767 285.124 160.162C372.667 158.667 465.809 163.968 549.696 149.463C645.679 132.855 730.551 103.68 822.905 83.1548C900.575 65.8962 971.043 62.0486 1055.63 67.1418C1300.12 81.8677 1519.54 147.332 1767.04 154.695C1910.51 158.957 2054.12 140.854 2194.63 129.395C2353.18 116.44 2496.73 118.447 2655.47 130.031C2823.53 142.28 2987.22 147.401 3156.43 151.816C3305.02 155.705 3452.85 162.653 3601.77 163.455" stroke="white" stroke-miterlimit="10"/>
<path d="M1 157.006C95.4641 157.214 189.703 154.944 284.083 153.062C371.43 151.332 464.347 156.397 548.233 142.308C644.273 126.253 729.594 97.7009 822.061 77.7296C899.843 60.9276 970.706 57.2046 1055.04 62.1594C1299.78 76.5393 1520.7 140.688 1768.42 147.858C1911.58 152.01 2054.9 134.654 2195.42 123.624C2353.21 111.167 2496.79 113.119 2654.71 124.468C2822.24 136.509 2985.51 141.505 3154.21 145.754C3303.56 149.505 3452.2 156.245 3601.86 157.006" stroke="white" stroke-miterlimit="10"/>
<path d="M1 150.764C95.1546 150.875 189.028 148.287 283.07 146.141C370.276 144.148 462.884 148.909 546.771 135.318C642.669 119.693 728.441 91.9294 821.048 72.5255C898.971 56.1941 970.143 52.6233 1054.31 57.4259C1299.53 71.446 1521.76 134.239 1769.74 141.214C1912.62 145.228 2055.64 128.634 2196.07 118.06C2353.07 106.254 2496.67 108.026 2653.73 119.139C2964.92 141.159 3287.04 149.228 3601.75 150.764" stroke="white" stroke-miterlimit="10"/>
<path d="M1 144.702C94.8452 144.702 188.325 141.823 282.001 139.387C368.954 137.132 461.365 141.713 545.223 128.495C641.122 113.382 727.344 86.3658 820.092 67.5986C898.099 51.7516 969.805 48.3469 1053.58 52.9972C1299.19 66.6159 1522.86 128.039 1771.09 134.806C1913.91 138.626 2056.56 122.807 2196.91 112.731C2353.09 101.507 2496.73 103.154 2652.86 114.032C2964.55 135.734 3286.71 143.263 3601.77 144.702" stroke="white" stroke-miterlimit="10"/>
<path d="M1 138.834C94.5358 138.751 187.621 135.526 280.932 132.799C367.66 130.281 459.817 134.612 543.676 121.852C639.575 107.278 726.303 80.9957 819.192 62.7682C897.312 47.4472 969.468 44.1948 1053.1 48.7482C1299.16 61.9794 1524.3 122.004 1772.81 128.537C1915.04 132.204 2057.38 117.174 2197.7 107.597C2353.01 96.9811 2496.67 98.5174 2651.9 109.147C2964.16 130.502 3286.4 137.491 3601.86 138.834" stroke="white" stroke-miterlimit="10"/>
<path d="M1 133.173C94.1982 132.966 186.862 129.423 279.807 126.392C366.338 123.624 458.214 127.665 542.045 115.389C637.887 101.341 725.065 75.8473 818.094 58.2288C896.411 43.406 969.046 40.3335 1052.37 44.5962C1298.85 57.4122 1525.45 116.011 1774.3 122.309C1916.27 125.893 2058.42 111.693 2198.51 102.614C2352.95 92.6216 2496.7 94.0471 2650.89 104.413C2963.59 125.478 3286.03 131.914 3601.77 133.173" stroke="white" stroke-miterlimit="10"/>
<path d="M1 127.637C93.8325 127.319 186.102 123.485 278.682 120.108C364.988 117.008 456.582 120.855 540.3 109.036C636.34 95.6108 723.968 70.8923 817.138 53.8827C895.567 39.5996 968.708 36.6932 1051.67 40.8591C1298.6 53.2322 1526.66 110.392 1775.84 116.44C1917.51 119.873 2059.26 106.517 2199.33 97.9636C2352.76 88.58 2496.56 89.9086 2649.88 99.9566C2963.2 120.717 3285.64 126.53 3601.77 127.637" stroke="white" stroke-miterlimit="10"/>
<path d="M1 122.406C93.5512 121.963 185.343 117.741 277.528 114.101C363.637 110.711 454.923 114.295 538.753 103.029C634.568 90.0888 722.674 66.1591 815.985 49.7862C894.386 36.0429 968.089 33.3026 1050.85 37.3301C1298.4 49.2603 1527.81 104.967 1777.36 110.766C1918.81 113.991 2060.19 101.465 2200.17 93.4519C2352.76 84.7326 2496.48 85.9229 2648.84 95.8047C2962.52 116.011 3285.27 121.354 3601.77 122.406" stroke="white" stroke-miterlimit="10"/>
<path d="M1 117.299C93.2136 116.745 184.583 112.192 276.347 108.247C362.287 104.566 453.207 107.901 537.065 97.0781C632.88 84.705 721.436 61.5643 814.916 45.8696C893.401 32.6661 967.611 30.1057 1050.12 33.9255C1298.07 45.4267 1529.05 99.6524 1778.97 105.188C1920.02 108.316 2061.12 96.6491 2200.93 89.1616C2352.67 81.0512 2496.31 82.2415 2647.68 91.7497C2961.99 111.583 3284.88 116.371 3601.77 117.299" stroke="white" stroke-miterlimit="10"/>
<path d="M1 112.413C92.876 111.721 183.852 106.877 275.165 102.586C361.077 98.5728 451.547 101.673 535.49 91.3344C631.332 79.5287 720.339 57.2046 813.987 42.1188C892.557 29.4551 967.274 27.0884 1049.53 30.7422C1297.84 41.8282 1530.34 94.5315 1780.65 99.8046C1921.31 102.766 2062.19 91.971 2201.89 85.0233C2349.89 77.5839 2499.14 78.5406 2646.7 87.8744C2961.43 107.334 3284.48 111.583 3601.77 112.413" stroke="white" stroke-miterlimit="10"/>
<path d="M1 107.68C92.5666 106.877 183.008 101.645 273.871 97.0781C359.502 92.7738 449.606 95.6941 533.521 85.7984C629.363 74.5463 718.848 53.0387 812.637 38.5896C891.404 26.4794 966.542 24.2927 1048.54 27.7804C1297.84 38.3543 1531.58 89.6321 1782.29 94.6284C1922.74 97.3964 2063.2 87.5007 2202.73 81.1066C2350.16 74.2023 2498.67 75.2512 2645.63 84.2344C2960.89 103.265 3284.2 106.974 3601.86 107.68" stroke="white" stroke-miterlimit="10"/>
<path d="M1 103.168C92.229 102.227 182.22 96.6489 272.802 91.7633C358.292 87.1546 447.946 89.798 531.917 80.4421C627.788 69.7575 717.723 49.0665 811.653 35.2678C890.419 23.6974 966.148 21.6906 1047.95 25.0123C1297.48 35.1294 1532.74 84.9125 1783.86 89.6596C1924.04 92.3031 2064.16 83.224 2203.55 77.3834C2350.38 71.014 2498.15 72.155 2644.5 80.7881C2960.39 99.3893 3283.72 102.573 3601.77 103.168" stroke="white" stroke-miterlimit="10"/>
<path d="M1 98.8356C91.9196 97.7699 181.433 91.9155 271.621 86.6562C356.998 81.7291 446.033 84.1512 530.229 75.2796C626.1 65.1625 716.457 45.2741 810.555 32.126C889.322 21.0539 965.642 19.2823 1047.19 22.4379C1297.25 32.126 1533.86 80.4005 1785.47 84.8708C1925.33 87.3621 2065.14 79.141 2204.39 73.7987C2352.5 68.1796 2495.75 68.9823 2643.38 77.4664C2959.77 95.6938 3283.33 98.3512 3601.77 98.8356" stroke="white" stroke-miterlimit="10"/>
<path d="M1 94.6975C91.6101 93.5072 180.645 87.2515 270.439 81.7431C355.733 76.4977 444.374 78.6982 528.513 70.3111C624.412 60.7476 715.219 41.6897 809.486 29.1643C888.253 18.6874 965.107 17.0404 1046.46 20.0437C1297.05 29.2474 1535.07 76.0686 1787.07 80.276C2074.26 85.0786 2354.7 58.3532 2642.51 74.4493C2959.32 92.1647 3283.05 94.3238 3601.97 94.6975" stroke="white" stroke-miterlimit="10"/>
<path d="M1 90.7531C91.3007 89.4521 179.885 82.8503 269.286 77.0236C354.495 71.4876 442.573 73.4529 526.826 65.5363C622.752 56.5263 713.981 38.285 808.417 26.3963C887.353 16.4591 964.573 14.992 1045.73 17.8154C1296.89 26.5901 1536.25 71.9304 1788.7 75.9441C2074.65 80.4145 2355.03 56.0281 2641.27 71.6121C2958.64 88.8846 3282.57 90.4901 3601.77 90.7531" stroke="white" stroke-miterlimit="10"/>
<path d="M1 87.0023C91.0194 85.6183 179.126 78.6982 268.245 72.5116C353.398 66.6296 440.885 68.3596 525.278 60.9689C621.205 52.4988 712.856 35.0602 807.433 23.8358C886.453 14.4245 964.095 13.1235 1045.11 15.7947C1296.8 24.0988 1537.41 68.0136 1790.36 71.7089C2075.1 75.8609 2355.51 53.7997 2640.31 68.9409C2958.19 85.7567 3282.18 86.9331 3601.86 87.0992" stroke="white" stroke-miterlimit="10"/>
<path d="M1 83.4454C90.7381 81.9091 178.366 74.643 266.979 68.2212C352.132 62.0347 439 63.6263 523.506 56.637C619.517 48.6789 711.59 32.0569 806.308 21.4138C885.496 12.5007 963.532 11.3797 1044.41 13.8847C1296.63 21.7875 1538.56 64.2352 1791.91 67.6814C2075.5 71.5567 2355.82 51.7514 2639.27 66.2974C2957.57 82.6565 3281.81 83.3485 3601.77 83.4454" stroke="white" stroke-miterlimit="10"/>
<path d="M1 80.0685C90.5411 78.4215 177.719 70.8924 265.966 64.0969C351.091 57.5782 437.341 58.9899 521.959 52.4435C701.041 38.6034 859.194 6.70182 1043.68 12.1687C1296.46 19.6839 1539.77 60.6646 1793.45 63.8893C2075.89 67.4601 2356.08 49.8831 2638.29 63.8893C2957.04 79.8193 3281.45 80.11 3601.77 80.0685" stroke="white" stroke-miterlimit="10"/>
<path d="M1 76.8992C90.2036 75.1553 176.903 67.2111 264.785 60.208C349.909 53.3709 435.512 54.6027 520.327 48.4853C699.41 35.5725 859.222 5.45629 1043.03 10.6048C1296.21 17.691 1540.7 57.3015 1794.95 60.291C2076.26 63.5988 2356.39 48.167 2637.3 61.675C2956.53 77.093 3281.11 76.8992 3601.86 76.8992" stroke="white" stroke-miterlimit="10"/>
<path d="M1 73.9097C89.9504 72.069 176.228 63.8618 263.744 56.5126C348.869 49.3711 433.824 50.4506 518.808 44.7485C697.694 32.7352 859.194 4.34907 1042.27 9.17928C1296.1 15.8779 1541.6 54.1183 1796.18 56.8863C2076.51 59.945 2356.38 46.6169 2636.18 59.6544C2955.83 74.6017 3280.55 74.0758 3601.66 73.8682" stroke="white" stroke-miterlimit="10"/>
<path d="M1 71.1137C89.7253 69.1899 175.413 60.6782 262.619 53.1215C347.771 45.6755 432.108 46.5751 517.261 41.2743C696.175 30.0777 859.194 3.35233 1041.85 7.90574C1296.04 14.2445 1542.58 51.1147 1797.79 53.7028C2077.1 56.4708 2356.75 45.2188 2635.47 57.8548C2955.58 72.2763 3280.41 71.4043 3601.77 71.1137" stroke="white" stroke-miterlimit="10"/>
<path d="M1 68.5119C89.5003 66.5051 174.878 57.7028 261.719 49.8C346.899 42.0496 430.505 42.88 515.911 37.8837C694.571 27.5866 859.11 2.46675 1041.01 6.75719C1295.9 12.7638 1543.57 48.3191 1799.14 50.7135C2077.63 53.3293 2356.89 43.9595 2634.63 56.0973C2955.15 70.1312 3280.12 68.8718 3601.89 68.5534" stroke="white" stroke-miterlimit="10"/>
<path d="M1 66.1038C89.3034 64.0277 174.259 54.9348 260.79 46.7275C345.971 38.6864 429.07 39.2954 514.56 34.742C693.193 25.2199 858.997 1.69167 1040.5 5.74684C1295.79 11.3798 1544.44 45.6895 1800.43 47.9316C2077.94 50.3537 2356.98 42.8385 2633.79 54.5334C2954.76 68.1244 3279.79 66.519 3601.77 66.1038" stroke="white" stroke-miterlimit="10"/>
<path d="M1 63.8894C89.1346 61.758 173.668 52.3882 259.806 43.9595C345.015 35.6554 427.551 36.1122 513.21 31.8909C691.786 23.1162 858.997 1.04118 1039.91 4.86106C1295.68 10.2587 1545.39 43.2122 1801.67 45.3574C2078.34 47.6133 2357.06 41.842 2633 53.1217C2954.34 66.2422 3279.48 64.3461 3601.86 63.8894" stroke="white" stroke-miterlimit="10"/>
<path d="M1 61.8687C89.0502 59.6819 173.19 50.1322 259.131 41.3714C344.34 32.7766 426.37 33.0673 512.31 29.2336C690.492 21.1371 858.828 0.459854 1039.37 4.08598C1295.53 9.22068 1546.04 41.0254 1802.82 43.0045C2078.76 45.1221 2357 40.9839 2632.29 51.8484C2953.97 64.526 3279.31 62.3531 3601.86 61.8687" stroke="white" stroke-miterlimit="10"/>
<path d="M1 60.028C88.9095 57.8136 172.599 47.9317 258.343 39.0602C343.552 30.1886 425.104 30.4378 511.016 26.8255C689.254 19.3241 858.688 -0.0244316 1038.84 3.42177C1295.42 8.33503 1546.74 38.9772 1804 40.7902C2403.93 45.1499 3001.82 60.9277 3601.97 59.9727" stroke="white" stroke-miterlimit="10"/>
<path d="M1 58.4361C88.797 56.1524 172.177 45.9799 257.611 36.9008C343.045 27.8216 423.95 27.9047 509.975 24.5692C688.129 17.6491 858.547 -0.426172 1038.36 2.88163C1295.34 7.60113 1547.53 37.1084 1804.88 38.8661C2079.58 40.776 2357.06 39.6273 2631.03 49.6752C2953.38 61.5224 3278.66 58.9066 3601.77 58.4361" stroke="white" stroke-miterlimit="10"/>
<path d="M1 56.9415C88.6282 54.6993 171.643 44.3607 256.993 35.0048C342.342 25.6488 422.966 25.6765 509.075 22.5486C687.145 16.1683 858.434 -0.785882 1037.94 2.39736C1295.25 6.96461 1548.04 35.4062 1805.92 37.15C2079.88 39.06 2356.98 39.2814 2630.49 48.845C2953.19 60.1385 3278.41 57.4535 3601.86 56.9415" stroke="white" stroke-miterlimit="10"/>
<path d="M1 55.6684C88.5438 53.4401 171.249 42.8801 256.261 33.3442C341.273 23.8083 421.897 23.6561 508.09 20.805C686.132 14.8676 858.238 -1.0763 1037.49 2.06542C1295.11 6.52195 1548.55 33.8978 1806.62 35.6693C2080.36 37.4962 2356.95 38.8664 2630.04 48.1255C2952.99 59.0454 3278.27 56.1805 3601.77 55.6684" stroke="white" stroke-miterlimit="10"/>
<path d="M1 54.6163C88.4876 52.4019 170.883 41.6619 255.727 31.9323C340.57 22.2026 421.109 22.0089 507.359 19.2962C685.232 13.7601 858.012 -1.22874 1037.01 1.80225C1294.92 6.17574 1549 32.652 1807.24 34.382C2080.62 36.2089 2356.81 38.534 2629.57 47.5024C2952.73 58.104 3277.93 55.073 3601.77 54.6163" stroke="white" stroke-miterlimit="10"/>
<path d="M1 53.7445C88.5438 51.5163 170.658 40.6518 255.361 30.756C340.064 20.8603 420.518 20.5697 506.796 18.0092C684.585 12.7638 857.984 -1.39468 1036.76 1.69168C1295.03 5.95445 1549.42 31.5311 1807.94 33.3026C2081.01 35.1849 2356.84 38.3543 2629.37 47.0182C2952.74 57.3015 3277.9 54.1598 3601.89 53.7445" stroke="white" stroke-miterlimit="10"/>
<path d="M1 53.0664C88.4594 50.9488 170.321 39.8767 254.883 29.8288C339.445 19.7808 420.153 19.4072 506.262 16.9159C683.966 11.892 857.9 -1.50529 1036.48 1.51186C1294.8 5.85766 1549.76 30.5761 1808.45 32.4446C2081.32 34.396 2356.78 38.2297 2629.09 46.6584C2952.59 56.6648 3277.73 53.3985 3601.86 53.0664" stroke="white" stroke-miterlimit="10"/>
<path d="M1 52.5681C88.4594 50.5336 170.124 39.3231 254.601 29.1506C339.079 18.9781 419.562 18.5213 505.784 16.127C683.459 11.2137 857.872 -1.57457 1036.22 1.47026C1294.69 5.84375 1550.01 29.8564 1808.84 31.8217C2081.71 33.8701 2356.72 38.1882 2628.95 46.3954C2952.65 56.1666 3277.65 52.8173 3601.86 52.5681" stroke="white" stroke-miterlimit="10"/>
<path d="M1 52.2774C88.5157 50.3259 169.955 39.0047 254.376 28.7491C338.798 18.4936 419.337 17.9677 505.53 15.601C683.037 10.7016 857.872 -1.61616 1036.03 1.49787C1294.58 6.0236 1550.21 29.3719 1809.1 31.4064C2081.8 33.6209 2356.69 38.2158 2628.92 46.2569C2952.68 55.8205 3277.56 52.4158 3601.86 52.2774" stroke="white" stroke-miterlimit="10"/>
<path d="M1 52.1667C88.572 50.3398 169.786 38.9078 254.179 28.5277C338.573 18.1475 419.224 17.6078 505.305 15.2272C682.531 10.3417 857.759 -1.64392 1035.69 1.58084C1294.3 6.2865 1550.15 28.929 1809.07 31.2126C2081.94 33.6208 2356.53 38.3265 2628.78 46.2154C2952.79 55.6682 3277.54 52.1805 3601.77 52.1667" stroke="white" stroke-miterlimit="10"/>
<defs>
<filter id="filter0_d_0_1" x="-1683" y="-647" width="1688" height="5796" filterUnits="userSpaceOnUse" color-interpolation-filters="sRGB">
<feFlood flood-opacity="0" result="BackgroundImageFix"/>
<feColorMatrix in="SourceAlpha" type="matrix" values="0 0 0 0 0 0 0 0 0 0 0 0 0 0 0 0 0 0 127 0" result="hardAlpha"/>
<feOffset dy="4"/>
<feGaussianBlur stdDeviation="2"/>
<feComposite in2="hardAlpha" operator="out"/>
<feColorMatrix type="matrix" values="0 0 0 0 0 0 0 0 0 0 0 0 0 0 0 0 0 0 0.1 0"/>
<feBlend mode="normal" in2="BackgroundImageFix" result="effect1_dropShadow_0_1"/>
<feBlend mode="normal" in="SourceGraphic" in2="effect1_dropShadow_0_1" result="shape"/>
</filter>
<clipPath id="clip0_0_1">
<rect width="1680" height="5788" fill="white" transform="translate(-1679 -647)"/>
</clipPath>
</defs>
</svg>
