<svg width="164" height="158" viewBox="0 0 164 158" fill="none" xmlns="http://www.w3.org/2000/svg">
<path d="M6.95662 39.7229C71.4491 39.7229 123.718 91.6327 123.718 155.652C123.718 219.671 71.4491 271.581 6.95662 271.581C-57.5358 271.581 -109.805 219.671 -109.805 155.652C-109.805 91.6327 -57.5358 39.7229 6.95662 39.7229Z" stroke="#19F9D8" stroke-opacity="0.25" stroke-width="2"/>
<path d="M6.61574 21.4212C81.4766 21.4212 142.151 81.6767 142.151 155.991C142.151 230.305 81.4766 290.561 6.61574 290.561C-68.2451 290.561 -128.92 230.305 -128.92 155.991C-128.92 81.6767 -68.2451 21.4212 6.61574 21.4212Z" stroke="#19F9D8" stroke-opacity="0.25" stroke-width="2"/>
<path d="M6.61569 1.08569C92.7875 1.08569 162.631 70.4458 162.631 155.991C162.631 241.536 92.7875 310.896 6.61569 310.896C-79.5561 310.896 -149.4 241.536 -149.4 155.991C-149.4 70.4458 -79.5561 1.08569 6.61569 1.08569Z" stroke="#19F9D8" stroke-opacity="0.25" stroke-width="2"/>
</svg>
