<svg xmlns="http://www.w3.org/2000/svg" xmlns:xlink="http://www.w3.org/1999/xlink" viewBox="0 0 1280.03 397.99"><defs><style>.cls-1,.cls-10,.cls-11,.cls-12,.cls-13,.cls-14,.cls-15,.cls-16,.cls-17,.cls-18,.cls-19,.cls-2,.cls-20,.cls-21,.cls-22,.cls-23,.cls-24,.cls-25,.cls-26,.cls-27,.cls-28,.cls-29,.cls-3,.cls-30,.cls-31,.cls-32,.cls-33,.cls-34,.cls-35,.cls-36,.cls-37,.cls-38,.cls-39,.cls-4,.cls-40,.cls-41,.cls-42,.cls-43,.cls-44,.cls-45,.cls-46,.cls-47,.cls-48,.cls-49,.cls-5,.cls-50,.cls-51,.cls-52,.cls-53,.cls-54,.cls-55,.cls-56,.cls-57,.cls-58,.cls-59,.cls-6,.cls-60,.cls-61,.cls-62,.cls-63,.cls-64,.cls-65,.cls-66,.cls-67,.cls-68,.cls-69,.cls-7,.cls-70,.cls-71,.cls-72,.cls-73,.cls-8,.cls-9{fill:none;stroke-miterlimit:10;}.cls-1{stroke:url(#linear-gradient);}.cls-2{stroke:url(#linear-gradient-2);}.cls-3{stroke:url(#linear-gradient-3);}.cls-4{stroke:url(#linear-gradient-4);}.cls-5{stroke:url(#linear-gradient-5);}.cls-6{stroke:url(#linear-gradient-6);}.cls-7{stroke:url(#linear-gradient-7);}.cls-8{stroke:url(#linear-gradient-8);}.cls-9{stroke:url(#linear-gradient-9);}.cls-10{stroke:url(#linear-gradient-10);}.cls-11{stroke:url(#linear-gradient-11);}.cls-12{stroke:url(#linear-gradient-12);}.cls-13{stroke:url(#linear-gradient-13);}.cls-14{stroke:url(#linear-gradient-14);}.cls-15{stroke:url(#linear-gradient-15);}.cls-16{stroke:url(#linear-gradient-16);}.cls-17{stroke:url(#linear-gradient-17);}.cls-18{stroke:url(#linear-gradient-18);}.cls-19{stroke:url(#linear-gradient-19);}.cls-20{stroke:url(#linear-gradient-20);}.cls-21{stroke:url(#linear-gradient-21);}.cls-22{stroke:url(#linear-gradient-22);}.cls-23{stroke:url(#linear-gradient-23);}.cls-24{stroke:url(#linear-gradient-24);}.cls-25{stroke:url(#linear-gradient-25);}.cls-26{stroke:url(#linear-gradient-26);}.cls-27{stroke:url(#linear-gradient-27);}.cls-28{stroke:url(#linear-gradient-28);}.cls-29{stroke:url(#linear-gradient-29);}.cls-30{stroke:url(#linear-gradient-30);}.cls-31{stroke:url(#linear-gradient-31);}.cls-32{stroke:url(#linear-gradient-32);}.cls-33{stroke:url(#linear-gradient-33);}.cls-34{stroke:url(#linear-gradient-34);}.cls-35{stroke:url(#linear-gradient-35);}.cls-36{stroke:url(#linear-gradient-36);}.cls-37{stroke:url(#linear-gradient-37);}.cls-38{stroke:url(#linear-gradient-38);}.cls-39{stroke:url(#linear-gradient-39);}.cls-40{stroke:url(#linear-gradient-40);}.cls-41{stroke:url(#linear-gradient-41);}.cls-42{stroke:url(#linear-gradient-42);}.cls-43{stroke:url(#linear-gradient-43);}.cls-44{stroke:url(#linear-gradient-44);}.cls-45{stroke:url(#linear-gradient-45);}.cls-46{stroke:url(#linear-gradient-46);}.cls-47{stroke:url(#linear-gradient-47);}.cls-48{stroke:url(#linear-gradient-48);}.cls-49{stroke:url(#linear-gradient-49);}.cls-50{stroke:url(#linear-gradient-50);}.cls-51{stroke:url(#linear-gradient-51);}.cls-52{stroke:url(#linear-gradient-52);}.cls-53{stroke:url(#linear-gradient-53);}.cls-54{stroke:url(#linear-gradient-54);}.cls-55{stroke:url(#linear-gradient-55);}.cls-56{stroke:url(#linear-gradient-56);}.cls-57{stroke:url(#linear-gradient-57);}.cls-58{stroke:url(#linear-gradient-58);}.cls-59{stroke:url(#linear-gradient-59);}.cls-60{stroke:url(#linear-gradient-60);}.cls-61{stroke:url(#linear-gradient-61);}.cls-62{stroke:url(#linear-gradient-62);}.cls-63{stroke:url(#linear-gradient-63);}.cls-64{stroke:url(#linear-gradient-64);}.cls-65{stroke:url(#linear-gradient-65);}.cls-66{stroke:url(#linear-gradient-66);}.cls-67{stroke:url(#linear-gradient-67);}.cls-68{stroke:url(#linear-gradient-68);}.cls-69{stroke:url(#linear-gradient-69);}.cls-70{stroke:url(#linear-gradient-70);}.cls-71{stroke:url(#linear-gradient-71);}.cls-72{stroke:url(#linear-gradient-72);}.cls-73{stroke:url(#linear-gradient-73);}</style><linearGradient id="linear-gradient" x1="640.03" y1="397.99" x2="640.03" y2="396.97" gradientUnits="userSpaceOnUse"><stop offset="0" stop-color="#ee346e"/><stop offset="1" stop-color="#6b6cb2"/></linearGradient><linearGradient id="linear-gradient-2" x1="640.03" y1="388.31" x2="640.03" y2="387.03" xlink:href="#linear-gradient"/><linearGradient id="linear-gradient-3" x1="640.03" y1="378.69" x2="640.03" y2="377.24" xlink:href="#linear-gradient"/><linearGradient id="linear-gradient-4" x1="640.03" y1="368.77" x2="640.03" y2="363.96" xlink:href="#linear-gradient"/><linearGradient id="linear-gradient-5" x1="640.03" y1="360.08" x2="640.03" y2="352.13" xlink:href="#linear-gradient"/><linearGradient id="linear-gradient-6" x1="640.03" y1="351.02" x2="640.03" y2="339.96" xlink:href="#linear-gradient"/><linearGradient id="linear-gradient-7" x1="640.03" y1="342.12" x2="640.03" y2="327.5" xlink:href="#linear-gradient"/><linearGradient id="linear-gradient-8" x1="640.03" y1="333.38" x2="640.03" y2="314.57" xlink:href="#linear-gradient"/><linearGradient id="linear-gradient-9" x1="640.03" y1="324.79" x2="640.03" y2="301.67" xlink:href="#linear-gradient"/><linearGradient id="linear-gradient-10" x1="640.03" y1="316.35" x2="640.03" y2="288.65" xlink:href="#linear-gradient"/><linearGradient id="linear-gradient-11" x1="640.03" y1="308.04" x2="640.03" y2="275.57" xlink:href="#linear-gradient"/><linearGradient id="linear-gradient-12" x1="640.03" y1="297.75" x2="640.03" y2="262.49" xlink:href="#linear-gradient"/><linearGradient id="linear-gradient-13" x1="640.03" y1="289.45" x2="640.03" y2="249.46" xlink:href="#linear-gradient"/><linearGradient id="linear-gradient-14" x1="640.03" y1="281.29" x2="640.03" y2="236.54" xlink:href="#linear-gradient"/><linearGradient id="linear-gradient-15" x1="640.03" y1="273.27" x2="640.03" y2="223.78" xlink:href="#linear-gradient"/><linearGradient id="linear-gradient-16" x1="640.03" y1="265.39" x2="640.03" y2="211.25" xlink:href="#linear-gradient"/><linearGradient id="linear-gradient-17" x1="640.03" y1="257.64" x2="640.03" y2="199" xlink:href="#linear-gradient"/><linearGradient id="linear-gradient-18" x1="640.03" y1="250.03" x2="640.03" y2="187.1" xlink:href="#linear-gradient"/><linearGradient id="linear-gradient-19" x1="640.03" y1="242.56" x2="640.03" y2="175.59" xlink:href="#linear-gradient"/><linearGradient id="linear-gradient-20" x1="640.03" y1="235.23" x2="640.03" y2="164.54" xlink:href="#linear-gradient"/><linearGradient id="linear-gradient-21" x1="640.03" y1="228.03" x2="640.03" y2="154" xlink:href="#linear-gradient"/><linearGradient id="linear-gradient-22" x1="640.03" y1="220.97" x2="640.03" y2="144.04" xlink:href="#linear-gradient"/><linearGradient id="linear-gradient-23" x1="640.03" y1="214.04" x2="640.03" y2="134.71" xlink:href="#linear-gradient"/><linearGradient id="linear-gradient-24" x1="640.03" y1="207.26" x2="640.03" y2="126.07" xlink:href="#linear-gradient"/><linearGradient id="linear-gradient-25" x1="640.03" y1="200.61" x2="640.03" y2="118.19" xlink:href="#linear-gradient"/><linearGradient id="linear-gradient-26" x1="640.03" y1="194.09" x2="640.03" y2="111.12" xlink:href="#linear-gradient"/><linearGradient id="linear-gradient-27" x1="640.03" y1="187.53" x2="640.03" y2="104.79" xlink:href="#linear-gradient"/><linearGradient id="linear-gradient-28" x1="640.03" y1="181.05" x2="640.03" y2="98.7" xlink:href="#linear-gradient"/><linearGradient id="linear-gradient-29" x1="640.03" y1="174.65" x2="640.03" y2="92.85" xlink:href="#linear-gradient"/><linearGradient id="linear-gradient-30" x1="640.03" y1="168.33" x2="640.03" y2="87.23" xlink:href="#linear-gradient"/><linearGradient id="linear-gradient-31" x1="640.03" y1="162.11" x2="640.03" y2="81.84" xlink:href="#linear-gradient"/><linearGradient id="linear-gradient-32" x1="640.03" y1="155.97" x2="640.03" y2="76.67" xlink:href="#linear-gradient"/><linearGradient id="linear-gradient-33" x1="640.03" y1="149.93" x2="640.03" y2="71.71" xlink:href="#linear-gradient"/><linearGradient id="linear-gradient-34" x1="640.03" y1="143.99" x2="640.03" y2="66.97" xlink:href="#linear-gradient"/><linearGradient id="linear-gradient-35" x1="640.03" y1="138.49" x2="640.03" y2="62.43" xlink:href="#linear-gradient"/><linearGradient id="linear-gradient-36" x1="640.03" y1="133.25" x2="640.03" y2="58.1" xlink:href="#linear-gradient"/><linearGradient id="linear-gradient-37" x1="640.03" y1="128.15" x2="640.03" y2="53.97" xlink:href="#linear-gradient"/><linearGradient id="linear-gradient-38" x1="640.03" y1="123.2" x2="640.03" y2="50.03" xlink:href="#linear-gradient"/><linearGradient id="linear-gradient-39" x1="640.03" y1="118.4" x2="640.03" y2="46.29" xlink:href="#linear-gradient"/><linearGradient id="linear-gradient-40" x1="640.03" y1="113.73" x2="640.03" y2="42.73" xlink:href="#linear-gradient"/><linearGradient id="linear-gradient-41" x1="640.03" y1="109.21" x2="640.03" y2="39.35" xlink:href="#linear-gradient"/><linearGradient id="linear-gradient-42" x1="640.03" y1="104.83" x2="640.03" y2="36.14" xlink:href="#linear-gradient"/><linearGradient id="linear-gradient-43" x1="640.03" y1="100.59" x2="640.03" y2="33.11" xlink:href="#linear-gradient"/><linearGradient id="linear-gradient-44" x1="640.03" y1="96.5" x2="640.03" y2="30.24" xlink:href="#linear-gradient"/><linearGradient id="linear-gradient-45" x1="640.03" y1="92.54" x2="640.03" y2="27.54" xlink:href="#linear-gradient"/><linearGradient id="linear-gradient-46" x1="640.03" y1="88.72" x2="640.03" y2="25" xlink:href="#linear-gradient"/><linearGradient id="linear-gradient-47" x1="640.02" y1="85.03" x2="640.02" y2="22.61" xlink:href="#linear-gradient"/><linearGradient id="linear-gradient-48" x1="640.02" y1="81.49" x2="640.02" y2="20.36" xlink:href="#linear-gradient"/><linearGradient id="linear-gradient-49" x1="640.02" y1="78.08" x2="640.02" y2="18.27" xlink:href="#linear-gradient"/><linearGradient id="linear-gradient-50" x1="640.02" y1="74.82" x2="640.02" y2="16.31" xlink:href="#linear-gradient"/><linearGradient id="linear-gradient-51" x1="640.02" y1="71.69" x2="640.02" y2="14.49" xlink:href="#linear-gradient"/><linearGradient id="linear-gradient-52" x1="640.02" y1="68.7" x2="640.02" y2="12.79" xlink:href="#linear-gradient"/><linearGradient id="linear-gradient-53" x1="640.02" y1="65.85" x2="640.02" y2="11.23" xlink:href="#linear-gradient"/><linearGradient id="linear-gradient-54" x1="640.02" y1="63.14" x2="640.02" y2="9.79" xlink:href="#linear-gradient"/><linearGradient id="linear-gradient-55" x1="640.02" y1="60.57" x2="640.02" y2="8.46" xlink:href="#linear-gradient"/><linearGradient id="linear-gradient-56" x1="640.02" y1="58.13" x2="640.02" y2="7.62" xlink:href="#linear-gradient"/><linearGradient id="linear-gradient-57" x1="640.02" y1="55.85" x2="640.02" y2="6.51" xlink:href="#linear-gradient"/><linearGradient id="linear-gradient-58" x1="640.02" y1="53.73" x2="640.02" y2="5.51" xlink:href="#linear-gradient"/><linearGradient id="linear-gradient-59" x1="640.02" y1="51.75" x2="640.02" y2="4.61" xlink:href="#linear-gradient"/><linearGradient id="linear-gradient-60" x1="640.02" y1="49.92" x2="640.02" y2="3.81" xlink:href="#linear-gradient"/><linearGradient id="linear-gradient-61" x1="640.01" y1="48.24" x2="640.01" y2="3.1" xlink:href="#linear-gradient"/><linearGradient id="linear-gradient-62" x1="640.01" y1="46.7" x2="640.01" y2="2.47" xlink:href="#linear-gradient"/><linearGradient id="linear-gradient-63" x1="640.01" y1="45.3" x2="640.01" y2="1.93" xlink:href="#linear-gradient"/><linearGradient id="linear-gradient-64" x1="640.01" y1="43.68" x2="640.01" y2="1.46" xlink:href="#linear-gradient"/><linearGradient id="linear-gradient-65" x1="640.01" y1="42.91" x2="640.01" y2="1.07" xlink:href="#linear-gradient"/><linearGradient id="linear-gradient-66" x1="640.01" y1="41.89" x2="640.01" y2="0.75" xlink:href="#linear-gradient"/><linearGradient id="linear-gradient-67" x1="640.01" y1="41.02" x2="640.01" y2="0.49" xlink:href="#linear-gradient"/><linearGradient id="linear-gradient-68" x1="640.01" y1="40.28" x2="640.01" y2="0.29" xlink:href="#linear-gradient"/><linearGradient id="linear-gradient-69" x1="640.01" y1="39.67" x2="640.01" y2="0.15" xlink:href="#linear-gradient"/><linearGradient id="linear-gradient-70" x1="640.01" y1="39.18" x2="640.01" y2="0.05" xlink:href="#linear-gradient"/><linearGradient id="linear-gradient-71" x1="640.01" y1="38.81" x2="640.01" y2="0.01" xlink:href="#linear-gradient"/><linearGradient id="linear-gradient-72" x1="640.01" y1="38.55" x2="640.01" y2="0" xlink:href="#linear-gradient"/><linearGradient id="linear-gradient-73" x1="640.02" y1="38.42" x2="640.02" y2="0.03" xlink:href="#linear-gradient"/></defs><title>AAsset 1</title><g id="Layer_2" data-name="Layer 2"><g id="DESIGN"><path class="cls-1" d="M0,397.47q640,0,1280,0"/><path class="cls-2" d="M0,387.55c426.66-.13,853.33.64,1280,0"/><path class="cls-3" d="M0,377.76c426.63-.2,853.32,1.07,1280,0"/><path class="cls-4" d="M0,368.12c117.1-.07,234-3.32,351-3.65,96.07-.27,192.08,4.43,288.16,3.73,213.62-1.54,427.17.57,640.8-.08"/><path class="cls-5" d="M0,358.61c61.58,0,123.45,2,185,.32,55.78-1.49,111-6.28,166.87-6.3,95.66,0,191.17,6.63,286.85,6,213.79-1.45,427.47.7,641.28,0"/><path class="cls-6" d="M0,349.24c61.66,0,123.92,2.79,185.52.16,56.11-2.39,111-9.15,167.33-8.93,95.18.36,190.09,9.14,285.29,8.64,98-.51,195.7-5.79,293.68-3,115.92,3.28,232.2,3.52,348.18,3.15"/><path class="cls-7" d="M0,340c61.72,0,124.52,3.69,186.13-.08C242.68,336.47,297.08,327.5,354,328c94.63.88,188.84,11.93,283.52,11.68,98.46-.26,196.45-7.62,295-4,115.65,4.2,231.81,4.66,347.55,4.34"/><path class="cls-8" d="M0,330.92c61.76,0,125.25,4.67,186.82-.39,29.25-2.4,58-9,87-12.65,27-3.42,54.22-2.94,81.34-2.51,94,1.49,187.45,15,281.57,15,99,.08,197.26-9.62,296.4-5.16,115.33,5.17,231.37,5.92,346.83,5.67"/><path class="cls-9" d="M0,322c61.76,0,126.12,5.7,187.58-.75,29.52-3.1,58.27-10.92,87.56-15.46,27-4.18,54.18-3.85,81.4-3.21C450,304.73,542.49,320.75,636,321.22c99.7.5,198.11-11.74,298-6.37,115,6.18,230.88,7.26,346,7.12"/><path class="cls-10" d="M0,313.15c61.72,0,127.12,6.77,188.39-1.15,29.8-3.86,58.61-12.95,88.11-18.41,27-5,54.11-4.83,81.45-4,92.79,2.89,184.29,21.6,277.21,22.52,100.42,1,199-14,299.65-7.65,114.6,7.2,230.34,8.69,345.19,8.66"/><path class="cls-11" d="M0,304.48c61.64,0,128.23,7.83,189.25-1.6,30.11-4.66,58.95-15.05,88.67-21.47,27-5.84,54-5.88,81.51-4.77,92.12,3.71,182.56,25.13,274.86,26.55,49.14.75,97.72-4.66,146.59-8.91,51.87-4.51,102.92-3.82,154.81-.08,114.2,8.21,229.79,10.17,344.31,10.28"/><path class="cls-12" d="M0,295.94c32.82,0,65.63.28,98.45.49,30.21.2,61.79,2.84,91.68-2.56,30.44-5.49,59.31-17.2,89.26-24.61,27-6.7,53.84-7,81.57-5.6,91.45,4.56,180.74,28.76,272.44,30.7,49.39,1,98.17-5.39,147.21-10.24,52.39-5.18,103.57-4.38,156-.13,113.77,9.22,229.2,11.7,343.38,11.95"/><path class="cls-13" d="M0,287.54c33,0,66,.32,99,.56,30.33.22,62.15,3.08,92.07-3.11,30.76-6.36,59.66-19.39,89.84-27.81,27.1-7.56,53.65-8.12,81.63-6.44,90.79,5.43,178.87,32.44,270,34.91,49.65,1.35,98.65-6.12,147.85-11.58,53-5.88,104.21-4.95,157.22-.18,113.33,10.2,228.6,13.25,342.44,13.65"/><path class="cls-14" d="M0,279.28c33.16.06,66.32.37,99.49.63,30.46.25,62.52,3.31,92.46-3.66,31.11-7.25,60-21.59,90.43-31,27.16-8.42,53.43-9.27,81.69-7.29,90.15,6.32,177,36.14,267.51,39.16,49.89,1.67,99.14-6.87,148.49-12.94,53.52-6.58,104.84-5.52,158.43-.22,112.9,11.14,228,14.79,341.5,15.35"/><path class="cls-15" d="M0,271.16c33.33.07,66.67.41,100,.7,30.61.27,62.89,3.53,92.85-4.21,31.46-8.13,60.37-23.77,91-34.22,27.22-9.28,53.19-10.42,81.75-8.13,89.53,7.18,175,39.81,265.05,43.37,50.14,2,99.65-7.62,149.12-14.29,54.11-7.29,105.45-6.08,159.65-.27,112.45,12.05,227.4,16.34,340.56,17.05"/><path class="cls-16" d="M0,263.18c33.5.08,67,.45,100.51.77,30.77.29,63.25,3.74,93.22-4.75,31.81-9,60.72-25.91,91.61-37.36,27.26-10.1,52.93-11.56,81.8-9,88.95,8,173.11,43.43,262.64,47.5C680.18,262.68,730,252,779.56,244.78c54.69-8,106-6.64,160.83-.32,112,12.92,226.82,17.86,339.64,18.72"/><path class="cls-17" d="M0,255.34c33.66.08,67.33.48,101,.83,30.92.32,63.6,3.95,93.59-5.25,32.14-9.87,61-28,92.16-40.41,27.31-10.91,52.69-12.67,81.86-9.75,88.41,8.83,171.22,47,260.31,51.51,50.59,2.59,100.67-9.09,150.35-16.9,55.27-8.69,106.56-7.18,162-.36,111.57,13.73,226.26,19.33,338.76,20.33"/><path class="cls-18" d="M0,247.63c33.82.1,67.64.53,101.46.9,31.08.34,63.94,4.15,93.93-5.72,32.49-10.69,61.38-30,92.71-43.34,27.34-11.66,52.45-13.72,81.92-10.51,87.91,9.58,169.37,50.35,258.07,55.35,50.81,2.86,101.17-9.79,150.94-18.14,55.81-9.36,107.06-7.69,163.05-.4,111.15,14.48,225.73,20.75,337.92,21.86"/><path class="cls-19" d="M0,240.07c34,.1,67.93.55,101.9,1,31.21.36,64.25,4.34,94.24-6.13C229,223.42,257.86,203,289.4,188.76c27.35-12.35,52.23-14.69,82-11.21,87.47,10.26,167.61,53.58,256,59,51,3.1,101.64-10.46,151.49-19.31,56.32-10,107.52-8.17,164-.43,59.91,8.21,118.55,11.71,178.81,14.9,52.83,2.81,105.38,7.82,158.33,8.4"/><path class="cls-20" d="M0,232.64c34.1.11,68.2.59,102.3,1,31.33.38,64.55,4.53,94.53-6.49,33.12-12.18,62-33.66,93.7-48.72,27.34-13,52.05-15.58,82-11.84,87.09,10.84,165.93,56.58,254,62.27,51.21,3.31,102.08-11.07,152-20.39,56.79-10.59,107.94-8.62,165-.45,60.19,8.61,119,12.32,179.56,15.74,52.35,3,104.38,8.27,156.87,8.87"/><path class="cls-21" d="M0,225.35c34.22.12,68.44.62,102.67,1.06,31.4.4,64.82,4.71,94.76-6.77,33.42-12.82,62.23-35.28,94.14-51.1,27.32-13.54,51.91-16.34,82.1-12.4,86.78,11.32,164.39,59.35,252.29,65.28,51.41,3.46,102.47-11.64,152.48-21.38,57.19-11.15,108.31-9,165.76-.48,60.44,9,119.4,12.86,180.24,16.5,51.92,3.1,103.49,8.67,155.56,9.29"/><path class="cls-22" d="M0,218.2c34.33.12,68.65.64,103,1.1,31.45.41,65.07,4.89,95-7,33.69-13.37,62.45-36.74,94.53-53.22,27.28-14,51.81-17,82.17-12.87,86.54,11.68,163,61.84,250.75,67.9C677,217.71,728.23,202,778.32,191.88c57.52-11.63,108.63-9.36,166.44-.48,60.67,9.32,119.76,13.3,180.85,17.13,51.55,3.24,102.7,9.05,154.42,9.67"/><path class="cls-23" d="M0,211.19c34.41.12,68.83.66,103.24,1.13,31.43.43,65.3,5.06,95.1-7.07,33.94-13.81,62.65-38,94.87-55.06,27.23-14.4,51.76-17.44,82.24-13.24,86.37,11.9,161.77,64,249.47,70.1,51.81,3.6,103.07-12.55,153.26-23,57.77-12.05,108.89-9.65,167-.48,60.88,9.61,120.08,13.67,181.39,17.66,51.24,3.34,102,9.38,153.46,10"/><path class="cls-24" d="M0,204.32c34.48.11,69,.67,103.44,1.16,31.36.43,65.49,5.22,95.18-7.07,34.17-14.15,62.81-39.08,95.16-56.58,27.15-14.69,51.77-17.74,82.3-13.5,86.3,12,160.77,65.82,248.47,71.82,52,3.56,103.26-12.88,153.57-23.63,57.92-12.39,109.08-9.87,167.33-.47,33.71,5.44,67.44,11.83,101.51,14.75,26.68,2.29,53.59,1.5,80.33,3.3,51,3.42,101.51,9.65,152.71,10.22"/><path class="cls-25" d="M0,197.58c34.53.11,69.05.69,103.58,1.18,31.22.44,65.64,5.39,95.19-6.95,34.37-14.34,62.93-39.9,95.38-57.74,27.06-14.88,51.84-17.84,82.37-13.64,86.3,11.88,160,67.25,247.78,73,52.21,3.43,103.35-13.11,153.79-24.1,58-12.63,109.22-10,167.52-.43,33.84,5.55,67.7,12.1,101.91,15,26.67,2.29,53.56,1.41,80.28,3.24,50.85,3.49,101.15,9.89,152.2,10.39"/><path class="cls-26" d="M0,191c34.55.1,69.09.68,103.64,1.18,31,.45,65.76,5.54,95.15-6.72C233.34,171,261.82,145,294.33,127c27-15,52-17.74,82.44-13.64,86.38,11.61,159.53,68.17,247.43,73.61,52.4,3.24,103.36-13.23,153.94-24.37,57.91-12.77,109.27-10.07,167.52-.4,33.91,5.63,67.84,12.3,102.14,15.2,26.67,2.26,53.56,1.3,80.28,3.15,50.77,3.51,101,10,152,10.47"/><path class="cls-27" d="M0,184.53c34.53.19,69.06.69,103.59,1.13,31.14.4,65.68,5.47,95.15-6.83,34.48-14.4,63-40.2,95.56-58.15,27-14.91,51.89-17.82,82.39-13.67,86.33,11.74,159.69,67.85,247.53,73.41,52.29,3.32,103.38-13.18,153.88-24.23,58-12.67,109.24-10.07,167.54-.43,33.87,5.6,67.76,12.23,102,15.14,26.67,2.27,53.57,1.36,80.29,3.2,50.81,3.5,101,10,152.07,10.43"/><path class="cls-28" d="M0,178.22c34.51.25,69,.65,103.52,1,31.21.34,65.59,5.39,95.12-6.93,34.44-14.36,63.11-39.89,95.63-57.72,27.06-14.85,51.82-17.84,82.35-13.66C463,112.74,536.56,168.35,624.35,174c52.18,3.37,103.38-13.1,153.81-24,58-12.55,109.19-10,167.49-.44,33.81,5.56,67.63,12.14,101.81,15.05,26.68,2.28,53.58,1.41,80.31,3.24,50.86,3.47,101.19,9.85,152.26,10.37"/><path class="cls-29" d="M0,172q51.71.47,103.42.88c31.27.26,65.48,5.27,95.08-7,34.39-14.29,63.17-39.52,95.7-57.21C321.34,93.94,346,90.88,376.56,95.08c86.29,11.85,160.17,66.91,247.93,72.66,52.07,3.41,103.35-13,153.72-23.75,58-12.4,109.11-10,167.39-.44,33.73,5.52,67.48,12,101.57,14.95,26.69,2.28,53.6,1.44,80.34,3.25,50.94,3.45,101.38,9.74,152.52,10.29"/><path class="cls-30" d="M0,166c34.42.35,68.85.51,103.28.7,31.32.18,65.39,5.12,95-7.12,34.36-14.17,63.25-39.08,95.8-56.6,27.16-14.62,51.78-17.72,82.31-13.53,86.3,11.87,160.49,66.33,248.22,72.12,52,3.43,103.3-12.82,153.61-23.42,57.91-12.2,109-9.89,167.24-.41,33.64,5.47,67.29,11.91,101.29,14.81,26.69,2.28,53.62,1.48,80.37,3.27,51,3.41,101.61,9.6,152.85,10.18"/><path class="cls-31" d="M0,160.09c34.37.39,68.74.41,103.12.49,31.34.08,65.28,4.94,95-7.2,34.32-14,63.34-38.6,95.91-55.91,27.21-14.47,51.8-17.61,82.31-13.42,86.31,11.84,160.84,65.65,248.56,71.47,51.85,3.45,103.23-12.62,153.48-23,57.84-12,108.92-9.77,167-.38,33.53,5.43,67.07,11.79,101,14.67,26.71,2.28,53.65,1.51,80.41,3.27,51.18,3.36,101.89,9.45,153.25,10"/><path class="cls-32" d="M0,154.33c34.31.4,68.62.27,102.93.24,31.36,0,65.16,4.74,94.89-7.29,34.28-13.86,63.43-38.06,96-55.14,27.26-14.3,51.84-17.44,82.33-13.28,86.34,11.78,161.23,64.91,248.94,70.74C676.89,153,728.28,137.2,778.49,127c57.74-11.74,108.78-9.62,166.78-.32,60.79,9.75,119.82,13.8,181.06,17.75,51.32,3.31,102.2,9.29,153.7,9.9"/><path class="cls-33" d="M0,148.71c34.24.4,68.47.11,102.72-.06,31.35-.15,65,4.52,94.79-7.35,34.26-13.67,63.54-37.48,96.15-54.31,27.32-14.09,51.9-17.22,82.36-13.1,86.38,11.69,161.66,64.09,249.38,69.9,51.64,3.42,103-12.13,153.2-22.11,57.6-11.46,108.63-9.44,166.47-.24,60.67,9.64,119.6,13.67,180.72,17.53,51.48,3.26,102.56,9.12,154.21,9.74"/><path class="cls-34" d="M0,143.22c34.16.39,68.32-.06,102.48-.37,31.34-.29,64.92,4.27,94.7-7.43C231.43,122,260.85,98.58,293.49,82c27.37-13.87,52-17,82.4-12.9,86.44,11.57,162.13,63.21,249.87,69,51.53,3.39,102.9-11.84,153-21.58,57.45-11.16,108.46-9.24,166.12-.15,60.53,9.53,119.36,13.52,180.34,17.29,51.67,3.2,103,8.93,154.78,9.55"/><path class="cls-35" d="M0,137.88c34.08.37,68.14-.26,102.22-.73,31.31-.42,64.79,4,94.59-7.49,34.19-13.2,63.76-36.17,96.43-52.41,27.42-13.63,52.09-16.69,82.44-12.68,86.52,11.43,162.64,62.26,250.4,68,51.43,3.35,102.76-11.51,152.85-21,57.27-10.84,108.28-9,165.74-.06,60.39,9.42,119.1,13.37,179.93,17,51.87,3.12,103.38,8.73,155.4,9.35"/><path class="cls-36" d="M0,132.67c34,.34,68-.48,101.94-1.1,31.28-.58,64.66,3.71,94.46-7.56,34.18-12.92,63.89-35.45,96.6-51.37,27.46-13.36,52.2-16.37,82.5-12.43,86.59,11.26,163.16,61.26,251,66.9,51.32,3.29,102.6-11.16,152.67-20.37,57.07-10.5,108.07-8.77,165.31.05,60.23,9.29,118.82,13.19,179.5,16.74,52.09,3.06,103.83,8.52,156.06,9.14"/><path class="cls-37" d="M0,127.6c33.89.3,67.75-.71,101.64-1.5,31.23-.74,64.52,3.4,94.33-7.62,34.16-12.63,64-34.7,96.76-50.27,27.52-13.08,52.35-16,82.57-12.16C462,67.12,539.05,116.25,626.9,121.79,678.12,125,729.33,111,779.36,102.09c56.86-10.14,107.86-8.5,164.85.17,60.07,9.15,118.54,13,179,16.44,52.32,3,104.32,8.29,156.77,8.9"/><path class="cls-38" d="M0,122.67c33.79.26,67.54-1,101.32-1.93,31.18-.9,64.38,3.08,94.2-7.68,34.13-12.31,64.14-33.9,96.93-49.11C320.05,51.17,345,48.3,375.13,52.08c86.79,10.86,164.3,59.09,252.21,64.53,51.11,3.16,102.24-10.4,152.25-19,56.61-9.76,107.63-8.22,164.35.31,59.9,9,118.23,12.78,178.57,16.1,52.56,2.89,104.83,8.07,157.52,8.66"/><path class="cls-39" d="M0,117.88c33.69.2,67.32-1.22,101-2.38,31.12-1.08,64.23,2.75,94.05-7.73,34.12-12,64.29-33.08,97.12-47.91,27.61-12.47,52.66-15.25,82.73-11.57,86.91,10.64,164.91,57.94,252.89,63.26,51,3.08,102.05-10,152-18.28,56.36-9.36,107.39-7.91,163.82.46,59.74,8.85,117.93,12.55,178.08,15.74,52.82,2.81,105.37,7.83,158.31,8.41"/><path class="cls-40" d="M0,113.22c33.58.15,67.08-1.49,100.63-2.85,31.05-1.25,64.08,2.41,93.9-7.77C228.67,91,259,70.37,291.87,55.94c27.65-12.14,52.84-14.83,82.82-11.25,87,10.39,165.53,56.74,253.59,61.92,50.89,3,101.84-9.54,151.79-17.51,56.09-9,107.13-7.59,163.27.61,59.55,8.7,117.59,12.31,177.56,15.38,53.09,2.71,105.93,7.58,159.13,8.13"/><path class="cls-41" d="M0,108.71c33.47.08,66.84-1.79,100.27-3.34,31-1.44,63.92,2,93.74-7.82,34.09-11.29,64.58-31.35,97.5-45.37,27.7-11.8,53-14.38,82.92-10.91,87.17,10.13,166.17,55.5,254.32,60.54,50.79,2.9,101.63-9.09,151.55-16.73,55.81-8.53,106.86-7.25,162.69.78,110.62,15.91,225.13,21.74,337,22.85"/><path class="cls-42" d="M0,104.33c33.36,0,66.59-2.08,99.89-3.84,30.91-1.63,63.76,1.68,93.57-7.87,34.09-10.92,64.74-30.44,97.71-44,27.73-11.45,53.22-13.91,83-10.55,87.31,9.84,166.82,54.22,255.06,59.11C680,99.94,730.71,88.51,780.6,81.23c55.52-8.11,106.58-6.92,162.08.94C1053.48,97.85,1168,103.29,1280,104.33"/><path class="cls-43" d="M0,100.09c33.25-.06,66.34-2.39,99.51-4.36,30.83-1.82,63.59,1.31,93.4-7.91C227,77.29,257.83,58.3,290.85,45.13,318.62,34.06,344.27,31.71,374,35c87.47,9.56,167.5,52.93,255.84,57.65C680.4,95.3,731,84.44,780.88,77.52c55.21-7.67,106.28-6.56,161.46,1.12,111,15.43,225.55,20.48,337.69,21.45"/><path class="cls-44" d="M0,96c33.13-.15,66.07-2.71,99.11-4.9,30.76-2,63.42.92,93.22-7.95,34.07-10.15,65.06-28.57,98.13-41.3C318.3,31.14,344.12,28.92,373.74,32c87.62,9.26,168.17,51.6,256.63,56.15,50.47,2.59,101-7.67,150.8-14.23,54.9-7.22,106-6.19,160.81,1.3C1053.14,90.44,1167.76,95.09,1280,96"/><path class="cls-45" d="M0,92c33-.23,65.8-3,98.71-5.44,30.68-2.24,63.24.54,93-8C225.85,68.86,257,51,290.12,38.71,318,28.39,344,26.29,373.49,29.3c87.78,8.94,168.85,50.24,257.43,54.61,50.36,2.48,100.75-7.17,150.54-13.35C836,63.78,887.12,64.74,941.62,72,1053,87,1167.62,91.2,1280,92"/><path class="cls-46" d="M0,88.22c32.9-.32,65.53-3.37,98.3-6,30.61-2.45,63.06.14,92.86-8,34.06-9.35,65.38-26.64,98.55-38.47,27.87-9.93,54.07-11.91,83.49-9,88,8.62,169.55,48.87,258.26,53.06C681.74,82.14,732,73.09,781.76,67.3,836,61,887.09,61.86,941.25,69,1052.76,83.6,1167.49,87.46,1280,88.22"/><path class="cls-47" d="M0,84.53c32.78-.4,65.26-3.69,97.88-6.54,30.55-2.66,62.87-.25,92.68-8.07,34.06-8.94,65.54-25.66,98.77-37,27.9-9.54,54.28-11.39,83.61-8.63,88.14,8.31,170.25,47.49,259.09,51.49,50.14,2.26,100.3-6.17,150-11.58,53.94-5.86,105-5,158.81,1.87C1052.57,80.4,1167.35,83.86,1280,84.53"/><path class="cls-48" d="M0,81c32.66-.5,65-4,97.46-7.1C128,71,160.16,73.24,190,65.77c34.07-8.53,65.71-24.66,99-35.56,27.93-9.15,54.49-10.86,83.73-8.22C461,30,543.65,68.08,632.63,71.89c50,2.14,100.08-5.66,149.74-10.68a690,690,0,0,1,158.12,2.06C1052.37,77.33,1167.21,80.4,1280,81"/><path class="cls-49" d="M0,77.58c32.55-.58,64.7-4.36,97-7.66,30.44-3.11,62.47-1,92.3-8.15,34.07-8.13,65.88-23.67,99.22-34.11,28-8.75,54.71-10.33,83.86-7.81C461,27.49,544.09,64.54,633.21,68.15c49.93,2,99.86-5.15,149.46-9.77a722,722,0,0,1,157.44,2.26c112.07,13.75,227,16.43,339.92,16.94"/><path class="cls-50" d="M0,74.32c32.43-.68,64.42-4.71,96.62-8.24,30.39-3.33,62.26-1.42,92.11-8.18,34.08-7.72,66.05-22.67,99.44-32.64,28-8.36,54.92-9.81,84-7.41,88.7,7.31,172.33,43.28,261.6,46.71,49.83,1.91,99.64-4.65,149.19-8.87a757.69,757.69,0,0,1,156.75,2.46C1052,71.59,1166.94,73.89,1280,74.32"/><path class="cls-51" d="M0,71.19c32.32-.77,64.14-5,96.2-8.8,30.35-3.56,62-1.81,91.93-8.22,34.08-7.31,66.2-21.68,99.65-31.18,28-8,55.13-9.28,84.12-7,88.89,7,173,41.88,262.44,45.11,49.72,1.8,99.42-4.14,148.92-8,52.65-4.06,103.57-3.48,156.05,2.65C1051.78,68.92,1166.8,70.84,1280,71.19"/><path class="cls-52" d="M0,68.2c32.21-.86,63.86-5.38,95.78-9.36,30.32-3.79,61.83-2.2,91.74-8.26,34.09-6.91,66.37-20.68,99.88-29.73,28-7.57,55.32-8.76,84.24-6.59,89.08,6.65,173.69,40.48,263.27,43.52C737,61.25,836.69,41.94,939,53.57c112.62,12.8,227.7,14.36,341.07,14.63"/><path class="cls-53" d="M0,65.35c32.1-.94,63.59-5.71,95.37-9.92,30.29-4,61.6-2.58,91.55-8.3,34.1-6.51,66.53-19.69,100.1-28.28,28.06-7.18,55.51-8.24,84.36-6.2,89.28,6.34,174.37,39.1,264.11,42,101.65,3.23,201.32-14.39,303.07-3.13C1051.38,64,1166.53,65.16,1280,65.35"/><path class="cls-54" d="M0,62.64c32-1,63.32-6,95-10.47,30.27-4.25,61.37-3,91.37-8.34C220.47,37.71,253.05,25.11,286.67,17c28.09-6.8,55.69-7.74,84.49-5.81,89.47,6,175,37.73,264.92,40.4,101.22,3,200.9-12.94,302.14-2,113,12.15,228.17,13,341.81,13.12"/><path class="cls-55" d="M0,60.07c31.9-1.11,63.05-6.36,94.55-11,30.27-4.47,61.15-3.32,91.19-8.37,34.13-5.75,66.86-17.76,100.53-25.45C314.42,8.81,342.16,8,370.91,9.81c89.66,5.71,175.66,36.38,265.72,38.87,100.81,2.8,200.46-11.51,301.22-1C1051,59.5,1166.26,60,1280,60.07"/><path class="cls-56" d="M0,57.63C31.83,56.44,62.82,51,94.19,46.09c30.26-4.71,60.92-3.69,91-8.42,63.66-10,119.88-33.05,185.46-29.1C460.51,14,547,43.61,637.18,45.94c100.4,2.58,200-10.12,300.32,0C1050.81,57.45,1166.13,57.66,1280,57.63"/><path class="cls-57" d="M0,55.34c31.71-1.26,62.53-7,93.77-12.06,30.26-4.94,60.69-4.05,90.84-8.47C248.27,25.48,305.08,3.72,370.42,7.44c90,5.12,176.91,33.74,267.29,35.9,100,2.39,199.58-8.76,299.44,1,113.48,11.14,228.86,11,342.88,11"/><path class="cls-58" d="M0,53.18c31.62-1.33,62.29-7.26,93.4-12.57,30.26-5.16,60.46-4.38,90.67-8.5,63.59-8.68,121-29.19,186.08-25.7,90.23,4.84,177.5,32.47,268,34.47,99.65,2.21,199.14-7.42,298.6,2,113.63,10.8,229.06,10.42,343.21,10.27"/><path class="cls-59" d="M0,51.16c31.54-1.39,62-7.54,93-13,30.27-5.38,60.25-4.73,90.52-8.56C247.12,21.51,305.07,2.2,370,5.49,460.36,10.07,548,36.71,638.72,38.58c99.29,2,198.7-6.13,297.78,3C1050.29,52,1165.76,51.37,1280,51.16"/><path class="cls-60" d="M0,49.28c31.46-1.45,61.81-7.81,92.68-13.52,30.28-5.6,60-5,90.36-8.61,63.51-7.44,122-25.59,186.66-22.49C460.31,9,548.35,34.69,639.2,36.42c99,1.89,198.27-4.88,297,3.89,113.94,10.14,229.46,9.23,343.84,9"/><path class="cls-61" d="M0,47.54c31.39-1.5,61.59-8.07,92.35-14,30.28-5.81,59.82-5.37,90.21-8.66C246.06,18,305,1,369.52,3.93,460.27,8,548.66,32.79,639.66,34.41c98.65,1.75,197.84-3.68,296.24,4.77C1050,49,1165.54,47.84,1280,47.54"/><path class="cls-62" d="M0,45.94c31.33-1.54,61.38-8.31,92-14.4,30.29-6,59.63-5.67,90.08-8.72C245.56,16.48,305,.53,369.31,3.29,460.23,7.19,549,31,640.1,32.55c98.35,1.63,197.43-2.54,295.52,5.61,114.23,9.48,229.81,8.11,344.41,7.78"/><path class="cls-63" d="M0,44.48C31.3,42.9,61.21,36,91.76,29.67c30.29-6.21,59.45-6,90-8.77C245.1,15.05,304.94.11,369.12,2.73c91.06,3.71,180.11,26.69,271.39,28.12,98.09,1.53,197-1.46,294.86,6.39,114.35,9.16,230,7.59,344.66,7.24"/><path class="cls-64" d="M0,43.15C31.25,41.55,61,34.41,91.48,28c30.29-6.41,59.28-6.23,89.82-8.84C244.66,13.74,304.89-.24,368.93,2.25c91.21,3.55,180.55,25.69,272,27,213.26,3.15,425.8,14.55,639.14,13.86"/><path class="cls-65" d="M0,42C31.21,40.35,60.85,33,91.22,26.44s59.13-6.5,89.71-8.91c63.33-5,123.91-18.06,187.83-15.67,91.35,3.41,181,24.73,272.48,26,97.65,1.38,196.29.55,293.68,7.81C1049.51,44.23,1165.14,42.34,1280,42"/><path class="cls-66" d="M0,40.92c31.15-1.62,60.66-9.09,91-15.85s59-6.74,89.61-9c63.3-4.61,124.19-16.86,188-14.56,91.47,3.3,181.33,23.85,273,25.11C739,28,837.5,28.16,934.73,35.07c114.71,8.16,230.32,6.22,345.3,5.85"/><path class="cls-67" d="M0,40c31.12-1.61,60.52-9.24,90.74-16.13s58.88-7,89.52-9.06C243.55,10.52,304.73-1,368.45,1.27c91.58,3.22,181.67,23,273.41,24.28,97.31,1.32,195.63,2.31,292.71,9C1049.37,42.44,1165,40.37,1280,40"/><path class="cls-68" d="M0,39.24c31.1-1.6,60.39-9.36,90.55-16.39s58.79-7.17,89.45-9.13c63.23-4,124.65-14.83,188.28-12.64,91.68,3.16,182,22.29,273.8,23.54,97.18,1.32,195.36,3,292.32,9.48,114.88,7.66,230.48,5.47,345.6,5.14"/><path class="cls-69" d="M0,38.61C31.12,37,60.31,29.15,90.42,22s58.71-7.36,89.38-9.21C243,9,304.64-1.23,368.19,1,460,4.08,550.43,22.56,642.33,23.84c97.07,1.36,195.12,3.65,292,9.91,114.95,7.43,230.54,5.16,345.71,4.86"/><path class="cls-70" d="M0,38.12c31.09-1.53,60.19-9.53,90.25-16.79S149,13.8,179.61,12C242.78,8.37,304.61-1.31,368.09.87c91.83,3.14,182.46,21,274.42,22.35,97,1.41,194.92,4.18,291.72,10.27,115,7.23,230.58,4.87,345.8,4.63"/><path class="cls-71" d="M0,37.76c31.09-1.47,60.12-9.57,90.15-16.92s58.64-7.68,89.29-9.41C242.6,7.88,304.6-1.36,368,.84,459.88,4,550.64,21.35,642.65,22.77c97,1.48,194.76,4.6,291.53,10.53,115.07,7.06,230.6,4.64,345.85,4.46"/><path class="cls-72" d="M0,37.55c31.11-1.41,60.06-9.59,90.07-17s58.64-7.79,89.28-9.5C242.45,7.51,304.6-1.39,367.93.86,459.84,4.13,550.71,21,642.74,22.47c96.94,1.6,194.66,4.92,291.43,10.73,115.09,6.91,230.58,4.45,345.86,4.35"/><path class="cls-73" d="M0,37.47c31.13-1.32,60-9.58,90-17.08s58.67-7.89,89.27-9.61c63-3.53,125.29-12.19,188.54-9.86,91.93,3.4,182.88,19.76,274.92,21.41,97,1.74,194.61,5.14,291.39,10.84C1049.3,40,1164.74,37.48,1280,37.47"/></g></g></svg>